<svg width="560" height="654" viewBox="0 0 560 654" fill="none" xmlns="http://www.w3.org/2000/svg">
<path d="M449.186 506.549C432.392 496.685 415.056 486.466 412.643 474.885C411.51 469.626 412.027 457.772 425.325 434.746C503.361 422.374 559.999 300.43 559.999 190.749C560.687 169.073 557.335 147.472 550.154 127.291C542.972 107.11 532.114 88.7805 518.254 73.4436C504.395 58.1068 487.831 46.0908 469.594 38.1436C451.357 30.1964 431.837 26.488 412.249 27.2493C388.436 26.5275 364.833 32.3382 343.542 44.1632C322.252 55.9881 303.938 73.4598 290.232 95.02C271.226 58.7348 241.935 30.4002 206.898 14.408C171.862 -1.58426 133.037 -4.34111 96.4408 6.56473C59.8447 17.4706 27.5213 41.43 4.48042 74.7296C-18.5605 108.029 -31.032 148.809 -31.0013 190.749C-31.0013 298.959 24.5773 421.965 101.727 454.665C96.3893 464.502 93.1079 475.535 92.1237 486.957C92.1237 529.766 128.79 548.732 155.558 562.603C170.333 570.233 190.624 580.724 190.624 588.844C188.618 597.306 185.027 605.207 180.084 612.034C178.338 615.047 177.145 618.412 176.574 621.935C176.002 625.458 176.064 629.071 176.754 632.568C177.445 636.065 178.751 639.378 180.598 642.316C182.446 645.254 184.798 647.761 187.521 649.694C193.02 653.596 199.695 654.922 206.077 653.379C209.237 652.614 212.23 651.169 214.886 649.125C217.541 647.08 219.806 644.477 221.553 641.464C232.005 626.177 238.354 607.94 239.874 588.844C239.874 546.035 203.207 527.069 176.44 513.226C161.665 505.568 141.374 495.077 141.152 489.654C144.896 479.893 149.585 470.61 155.139 461.968C213.057 453.63 261.79 393.843 289.395 320.268C304.9 365.703 334.758 403.382 373.44 426.325C364.265 444.933 361.169 466.472 364.673 487.311C372.208 523.008 402.079 540.585 426.088 554.727C441.257 563.665 458.421 573.802 461.031 583.83C461.678 594.331 458.928 604.743 453.274 613.206C451.631 616.306 450.559 619.735 450.119 623.296C449.68 626.857 449.88 630.478 450.71 633.953C451.541 637.427 452.983 640.685 454.956 643.54C456.929 646.395 459.392 648.79 462.205 650.587C465.017 652.383 468.123 653.547 471.343 654.01C474.564 654.473 477.835 654.227 480.969 653.286C484.104 652.344 487.038 650.726 489.605 648.524C492.172 646.322 494.319 643.58 495.924 640.456C502.363 630.126 506.794 618.431 508.939 606.109C511.083 593.787 510.895 581.107 508.385 568.87C502.902 554.549 494.818 541.627 484.634 530.907C474.451 520.186 462.385 511.896 449.186 506.549V506.549ZM141.374 408.749C76.2159 408.749 18.2487 286.833 18.2487 190.749C18.2487 154.614 31.2207 119.958 54.3111 94.406C77.4015 68.8541 108.719 54.4993 141.374 54.4993C174.028 54.4993 205.346 68.8541 228.436 94.406C251.527 119.958 264.499 154.614 264.499 190.749C264.499 286.833 206.531 408.749 141.374 408.749ZM313.749 190.749C313.006 176.22 315.046 161.681 319.733 148.084C324.421 134.488 331.651 122.14 340.95 111.85C350.248 101.56 361.407 93.5589 373.694 88.3718C385.98 83.1846 399.119 80.9278 412.249 81.7493C425.378 80.9278 438.517 83.1846 450.804 88.3718C463.091 93.5589 474.249 101.56 483.548 111.85C492.847 122.14 500.077 134.488 504.764 148.084C509.452 161.681 511.491 176.22 510.749 190.749C510.749 283.399 460.12 381.499 412.249 381.499C364.378 381.499 313.749 283.399 313.749 190.749Z" fill="#B9D1FF" fill-opacity="0.2"/>
</svg>
