<svg width="442" height="369" viewBox="0 0 442 369" fill="none" xmlns="http://www.w3.org/2000/svg">
<path d="M441.169 317.052C440.451 314.622 439.285 312.365 437.738 310.409C436.19 308.453 434.292 306.837 432.151 305.653C430.009 304.469 427.668 303.74 425.259 303.509C422.85 303.277 420.421 303.547 418.112 304.303L394.17 312.053L377.024 259.024C395.033 248.393 409.081 231.647 416.869 211.526C424.657 191.405 425.725 169.099 419.898 148.257L385.956 42.1789C381.684 27.6971 372.24 15.5226 359.611 8.21617C346.981 0.909755 332.15 -0.959129 318.238 3.00262L247.297 23.8114C237.123 26.7894 227.989 32.8059 220.998 41.1326C214.007 32.8059 204.872 26.7894 194.699 23.8114L123.74 3.00262C109.928 -1.00533 95.1783 0.771818 82.586 7.96097C69.9937 15.1501 60.5386 27.1921 56.2057 41.5589L21.8217 149.226C16.2234 170.052 17.4773 192.258 25.3799 212.241C33.2826 232.224 47.3705 248.812 65.3587 259.315L47.9734 312.169L23.9396 304.303C21.63 303.54 19.2 303.263 16.7885 303.487C14.377 303.712 12.0311 304.434 9.88488 305.613C7.73864 306.791 5.83405 308.403 4.27986 310.355C2.72566 312.308 1.55228 314.564 0.826728 316.994C0.101175 319.424 -0.162349 321.98 0.0512028 324.517C0.264754 327.054 0.9512 329.522 2.07135 331.78C3.19149 334.038 4.7234 336.042 6.57961 337.677C8.43581 339.312 10.58 340.546 12.8896 341.309L52.6696 354.31C52.9459 354.31 53.1116 354.639 53.3879 354.756C53.6641 354.872 54.3456 354.872 54.8244 355.008L94.9911 368.124C99.6558 369.651 104.706 369.165 109.03 366.774C113.354 364.383 116.598 360.283 118.049 355.376C119.499 350.468 119.038 345.156 116.765 340.607C114.493 336.057 110.595 332.644 105.931 331.118L83.1676 323.659L100.387 271.346C103.802 271.808 107.239 272.066 110.682 272.121C130.594 272.07 149.953 265.23 165.857 252.626C181.762 240.023 193.355 222.336 198.898 202.216L220.998 133.319L242.785 201.131C248.155 221.507 259.715 239.475 275.699 252.292C291.684 265.11 311.215 272.074 331.314 272.121C334.892 272.086 338.465 271.827 342.014 271.346L358.92 323.659L336.01 331.138C331.346 332.664 327.448 336.077 325.176 340.626C322.903 345.175 322.441 350.488 323.892 355.395C325.343 360.302 328.587 364.403 332.911 366.793C337.235 369.184 342.285 369.67 346.95 368.144L387.006 355.066C387.485 354.93 387.982 355.066 388.461 354.814C388.94 354.562 388.94 354.446 389.234 354.329L429.051 341.329C431.363 340.574 433.511 339.346 435.371 337.717C437.232 336.088 438.769 334.088 439.894 331.834C441.02 329.579 441.712 327.113 441.931 324.576C442.149 322.04 441.891 319.483 441.169 317.052V317.052ZM245.989 70.4664C247.161 68.1961 248.757 66.1984 250.681 64.5936C252.605 62.9887 254.818 61.8098 257.187 61.1276L328.109 40.3382C329.692 39.8721 331.328 39.631 332.971 39.6214C337.022 39.6664 340.951 41.0835 344.175 43.6626C347.4 46.2418 349.748 49.8455 350.872 53.9395L364.887 97.7464H248.439L244.479 85.4045C243.773 82.9342 243.543 80.3404 243.802 77.7752C244.061 75.21 244.805 72.7252 245.989 70.4664V70.4664ZM108.988 39.6214C110.637 39.6246 112.278 39.8591 113.868 40.3189L184.809 61.1276C189.496 62.4875 193.481 65.7418 195.896 70.1807C198.311 74.6197 198.96 79.8831 197.701 84.8232L193.557 97.7464H77.1086L91.2894 53.3776C92.4597 49.399 94.8084 45.9182 97.9924 43.4434C101.176 40.9686 105.029 39.6294 108.988 39.6214V39.6214ZM163.759 190.746C160.817 201.806 154.828 211.701 146.545 219.182C138.263 226.663 128.06 231.396 117.224 232.783C106.388 234.17 95.4038 232.148 85.6585 226.973C75.9132 221.799 67.8433 213.703 62.4673 203.708C55.3497 190.651 53.4172 175.166 57.0896 160.618L64.7141 136.496H181.144L163.759 190.746ZM304.315 225.776C297.862 221.924 292.206 216.753 287.68 210.568C283.154 204.382 279.85 197.307 277.961 189.758L260.852 136.496H377.3L384.667 159.63C387.606 170.709 387.355 182.457 383.944 193.385C380.534 204.314 374.118 213.933 365.509 221.023C356.899 228.114 346.484 232.358 335.581 233.218C324.678 234.077 313.778 231.515 304.26 225.854L304.315 225.776Z" fill="#B9D1FF" fill-opacity="0.2"/>
</svg>
