<svg width="16" height="15" viewBox="0 0 16 15" fill="none" xmlns="http://www.w3.org/2000/svg">
<path d="M12.6667 0.166504H3.33333C2.4496 0.167562 1.60237 0.519092 0.97748 1.14398C0.352588 1.76888 0.00105857 2.61611 0 3.49984L0 11.4998C0.00105857 12.3836 0.352588 13.2308 0.97748 13.8557C1.60237 14.4806 2.4496 14.8321 3.33333 14.8332H12.6667C13.5504 14.8321 14.3976 14.4806 15.0225 13.8557C15.6474 13.2308 15.9989 12.3836 16 11.4998V3.49984C15.9989 2.61611 15.6474 1.76888 15.0225 1.14398C14.3976 0.519092 13.5504 0.167562 12.6667 0.166504V0.166504ZM3.33333 1.49984H12.6667C13.0659 1.50062 13.4557 1.62085 13.786 1.84504C14.1163 2.06923 14.3719 2.38714 14.52 2.75784L9.41467 7.86384C9.03895 8.23805 8.53028 8.44815 8 8.44815C7.46972 8.44815 6.96105 8.23805 6.58533 7.86384L1.48 2.75784C1.6281 2.38714 1.88374 2.06923 2.21403 1.84504C2.54432 1.62085 2.93414 1.50062 3.33333 1.49984V1.49984ZM12.6667 13.4998H3.33333C2.8029 13.4998 2.29419 13.2891 1.91912 12.9141C1.54405 12.539 1.33333 12.0303 1.33333 11.4998V4.49984L5.64267 8.8065C6.26842 9.43067 7.11617 9.7812 8 9.7812C8.88383 9.7812 9.73158 9.43067 10.3573 8.8065L14.6667 4.49984V11.4998C14.6667 12.0303 14.456 12.539 14.0809 12.9141C13.7058 13.2891 13.1971 13.4998 12.6667 13.4998Z" fill="#192229"/>
</svg>
