<svg width="16" height="16" viewBox="0 0 16 16" fill="none" xmlns="http://www.w3.org/2000/svg">
<g clip-path="url(#clip0_120_22)">
<rect width="16" height="16" fill="white"/>
<path d="M1.7437 14.3117C1.80401 14.1709 1.96985 13.7991 2.24122 13.196C2.5126 12.603 2.86438 11.8291 3.29657 10.8742C3.73882 9.90933 4.23131 8.8188 4.77407 7.60263C5.32687 6.37641 5.90983 5.07984 6.52294 3.71291C6.55309 3.64255 6.58324 3.55209 6.61339 3.44153C6.6536 3.32092 6.6737 3.20533 6.6737 3.09477C6.6737 2.98421 6.63852 2.89375 6.56816 2.8234C6.50786 2.74299 6.37217 2.70278 6.1611 2.70278C5.73896 2.70278 5.38718 2.84852 5.10575 3.14C4.83437 3.42143 4.62833 3.77321 4.48761 4.19535C4.35695 4.61749 4.29162 5.03461 4.29162 5.4467C4.29162 5.54721 4.29162 5.63264 4.29162 5.703C4.30167 5.77335 4.31172 5.84371 4.32177 5.91407C4.13081 5.91407 3.97502 5.84874 3.8544 5.71807C3.74384 5.57736 3.65841 5.41152 3.5981 5.22055C3.54785 5.01953 3.52272 4.83861 3.52272 4.6778C3.52272 4.34612 3.61318 4.02951 3.7941 3.72798C3.97502 3.42645 4.20619 3.15508 4.48761 2.91385C4.77909 2.67263 5.0957 2.48669 5.43743 2.35603C5.78921 2.21531 6.13095 2.14496 6.46263 2.14496C6.79431 2.14496 7.07071 2.24044 7.29183 2.43141C7.52301 2.61233 7.69387 2.94401 7.80443 3.42645C7.92505 3.9089 7.98535 4.60744 7.98535 5.52208C7.98535 6.14524 7.96022 6.8086 7.90997 7.51217C7.86976 8.21574 7.82454 8.90926 7.77428 9.59272C7.72403 10.2762 7.68885 10.8993 7.66875 11.4622C7.82956 10.8491 8.05571 10.1958 8.34719 9.50226C8.64872 8.80875 8.97537 8.12026 9.32716 7.43679C9.68899 6.74327 10.0458 6.09499 10.3976 5.49193C10.7494 4.88887 11.066 4.36622 11.3474 3.92398C11.6288 3.48173 11.8349 3.1601 11.9655 2.95908C12.1062 2.75806 12.2269 2.6073 12.3274 2.50679C12.4279 2.39623 12.5585 2.34095 12.7194 2.34095C12.8601 2.34095 13.0209 2.37613 13.2018 2.44648C13.1314 2.6274 13.0309 2.89878 12.9003 3.26061C12.7797 3.6124 12.654 4.04459 12.5234 4.55719C12.3625 5.1703 12.2017 5.86884 12.0409 6.65281C11.8801 7.42674 11.7293 8.21574 11.5886 9.01982C11.458 9.82389 11.3524 10.5827 11.272 11.2964C11.1916 11.9999 11.1514 12.5929 11.1514 13.0754C11.1514 13.2965 11.1615 13.4674 11.1816 13.588C11.2017 13.7086 11.2268 13.8141 11.2569 13.9046C11.2971 14.0051 11.3373 14.1408 11.3776 14.3117C11.0358 14.3117 10.7745 14.2564 10.5936 14.1458C10.4127 14.0352 10.292 13.8543 10.2317 13.6031C10.1714 13.3618 10.1413 13.0352 10.1413 12.6231C10.1413 11.427 10.292 10.1455 10.5936 8.77859C10.9052 7.40161 11.2569 5.97437 11.6489 4.49688C11.3575 4.86877 11.0509 5.34116 10.7293 5.91407C10.4177 6.47692 10.1011 7.09003 9.77945 7.75339C9.46787 8.40671 9.16634 9.06505 8.87486 9.72841C8.59343 10.3817 8.34216 10.9898 8.12104 11.5527C7.89992 12.1155 7.72905 12.5829 7.60844 12.9548C7.54813 12.9749 7.50793 12.9899 7.48783 13C7.46773 13.0101 7.43255 13.0151 7.38229 13.0151C7.11092 13.0151 6.93 12.8543 6.83954 12.5326C6.75913 12.211 6.71893 11.7587 6.71893 11.1757C6.71893 10.7637 6.72898 10.2762 6.74908 9.71333C6.77924 9.14043 6.80939 8.55245 6.83954 7.94939C6.86969 7.34633 6.89482 6.7684 6.91492 6.2156C6.94508 5.65274 6.96015 5.1703 6.96015 4.76826C6.96015 4.56724 6.95513 4.4014 6.94508 4.27073C6.94508 4.14007 6.94005 4.02449 6.93 3.92398C6.12592 5.79346 5.45251 7.39156 4.90975 8.71829C4.367 10.035 3.90968 11.1054 3.5378 11.9296C3.17596 12.7538 2.85433 13.3568 2.57291 13.7387C2.29148 14.1207 2.01508 14.3117 1.7437 14.3117Z" fill="#4251DB"/>
</g>
<defs>
<clipPath id="clip0_120_22">
<rect width="16" height="16" fill="white"/>
</clipPath>
</defs>
</svg>
