<svg width="53" height="53" viewBox="0 0 53 53" fill="none" xmlns="http://www.w3.org/2000/svg">
<path d="M26.5 20.687C25.252 20.6874 24.0322 21.0508 22.9948 21.731C21.9574 22.4113 21.149 23.3779 20.6717 24.5087C20.1945 25.6395 20.0698 26.8837 20.3136 28.084C20.5573 29.2842 21.1585 30.3866 22.0411 31.2519C22.9237 32.1171 24.0481 32.7062 25.2722 32.9448C26.4962 33.1834 27.7648 33.0607 28.9178 32.5923C30.0707 32.1238 31.0561 31.3307 31.7494 30.313C32.4426 29.2954 32.8127 28.0991 32.8127 26.8753C32.8114 25.234 32.1459 23.6603 30.9622 22.5C29.7786 21.3397 28.1736 20.6876 26.5 20.687ZM41.2536 15.9303C40.9324 15.1319 40.4473 14.4068 39.8284 13.7999C39.2096 13.193 38.4701 12.7173 37.656 12.4023C35.1716 11.4405 29.2565 11.6563 26.5 11.6563C23.7435 11.6563 17.8343 11.4324 15.3428 12.4023C14.5287 12.7173 13.7893 13.193 13.1704 13.7999C12.5515 14.4068 12.0664 15.1319 11.7452 15.9303C10.7656 18.3667 10.9845 24.1732 10.9845 26.8741C10.9845 29.5749 10.7656 35.3746 11.7499 37.819C12.0712 38.6174 12.5563 39.3425 13.1751 39.9494C13.794 40.5563 14.5334 41.032 15.3475 41.3471C17.8319 42.3088 23.7471 42.0931 26.5047 42.0931C29.2624 42.0931 35.1693 42.317 37.6608 41.3471C38.4749 41.032 39.2143 40.5563 39.8332 39.9494C40.452 39.3425 40.9371 38.6174 41.2584 37.819C42.2462 35.3827 42.0191 29.5761 42.0191 26.8753C42.0191 24.1744 42.2462 18.3759 41.2584 15.9315L41.2536 15.9303ZM26.5 36.3886C24.5813 36.3886 22.7058 35.8306 21.1105 34.7853C19.5152 33.7399 18.2718 32.2542 17.5375 30.5158C16.8033 28.7775 16.6112 26.8647 16.9855 25.0193C17.3598 23.1739 18.2837 21.4788 19.6404 20.1483C20.9971 18.8179 22.7257 17.9118 24.6075 17.5447C26.4892 17.1777 28.4398 17.3661 30.2124 18.0861C31.985 18.8062 33.5 20.0255 34.566 21.5899C35.6319 23.1544 36.2009 24.9937 36.2009 26.8753C36.2024 28.125 35.9526 29.3627 35.4656 30.5176C34.9787 31.6725 34.2642 32.7219 33.363 33.6056C32.4619 34.4893 31.3919 35.19 30.2142 35.6675C29.0365 36.1451 27.7744 36.3901 26.5 36.3886ZM36.6008 19.1834C36.1529 19.1836 35.715 19.0536 35.3424 18.8097C34.9699 18.5659 34.6795 18.2192 34.5079 17.8134C34.3364 17.4077 34.2914 16.9612 34.3786 16.5304C34.4658 16.0995 34.6814 15.7038 34.998 15.3931C35.3147 15.0824 35.7181 14.8708 36.1574 14.7851C36.5967 14.6993 37.052 14.7432 37.4658 14.9112C37.8796 15.0793 38.2334 15.3639 38.4822 15.7291C38.7311 16.0943 38.8639 16.5236 38.8639 16.9629C38.8652 17.2545 38.8077 17.5436 38.6947 17.8134C38.5818 18.0833 38.4157 18.3286 38.2059 18.5353C37.996 18.7421 37.7467 18.9061 37.472 19.0182C37.1974 19.1302 36.9029 19.1879 36.6055 19.188L36.6008 19.1834ZM47.3214 0.887695H5.67857C4.17252 0.887695 2.72815 1.4744 1.66322 2.51875C0.598276 3.56309 0 4.97953 0 6.45646L0 47.2941C0 48.771 0.598276 50.1874 1.66322 51.2318C2.72815 52.2761 4.17252 52.8628 5.67857 52.8628H47.3214C48.8275 52.8628 50.2718 52.2761 51.3368 51.2318C52.4017 50.1874 53 48.771 53 47.2941V6.45646C53 4.97953 52.4017 3.56309 51.3368 2.51875C50.2718 1.4744 48.8275 0.887695 47.3214 0.887695ZM45.2961 34.5323C45.1435 37.5058 44.4514 40.1405 42.2379 42.3054C40.0245 44.4702 37.3402 45.1628 34.3116 45.3044C31.1872 45.4772 21.8199 45.4772 18.6955 45.3044C15.6634 45.1547 12.9862 44.4749 10.7692 42.3054C8.55217 40.1359 7.85536 37.5 7.71103 34.5323C7.53475 31.4672 7.53475 22.2799 7.71103 19.2182C7.86364 16.2447 8.54743 13.61 10.7692 11.4451C12.9909 9.28028 15.6752 8.59579 18.6955 8.45425C21.8199 8.28139 31.1872 8.28139 34.3116 8.45425C37.3437 8.60391 40.0292 9.28377 42.2379 11.4533C44.4467 13.6228 45.1517 16.2586 45.2961 19.2321C45.4723 22.2857 45.4723 31.4648 45.2961 34.5323Z" fill="#C4C8D0"/>
</svg>
