<svg width="53" height="53" viewBox="0 0 53 53" fill="none" xmlns="http://www.w3.org/2000/svg">
<path d="M49.2143 0.887695H3.77388C1.69174 0.887695 0 2.56993 0 4.63501V49.1155C0 51.1806 1.69174 52.8628 3.77388 52.8628H49.2143C51.2964 52.8628 53 51.1806 53 49.1155V4.63501C53 2.56993 51.2964 0.887695 49.2143 0.887695ZM16.0183 45.4378H8.16295V20.6336H16.0301V45.4378H16.0183ZM12.0906 17.2459C9.57076 17.2459 7.53594 15.2389 7.53594 12.7793C7.53594 10.3198 9.57076 8.31271 12.0906 8.31271C14.5987 8.31271 16.6453 10.3198 16.6453 12.7793C16.6453 15.2505 14.6105 17.2459 12.0906 17.2459ZM45.4641 45.4378H37.6087V33.3721C37.6087 30.495 37.5496 26.794 33.5272 26.794C29.4339 26.794 28.8069 29.9265 28.8069 33.1633V45.4378H20.9516V20.6336H28.4875V24.0213H28.594C29.6469 22.0722 32.2141 20.0187 36.0353 20.0187C43.9853 20.0187 45.4641 25.1582 45.4641 31.8407V45.4378Z" fill="#C4C8D0"/>
</svg>
