<svg width="179" height="113" viewBox="0 0 179 113" fill="none" xmlns="http://www.w3.org/2000/svg">
<path d="M26.8861 64.7616C27.0978 64.2676 27.68 62.9622 28.6326 60.8452C29.5852 58.7636 30.8201 56.0468 32.3372 52.695C33.8897 49.3079 35.6185 45.4798 37.5237 41.2107C39.4643 36.9062 41.5106 32.3548 43.6628 27.5564C43.7687 27.3095 43.8745 26.9919 43.9804 26.6038C44.1215 26.1804 44.1921 25.7747 44.1921 25.3866C44.1921 24.9985 44.0686 24.6809 43.8216 24.4339C43.6099 24.1517 43.1336 24.0106 42.3927 24.0106C40.9108 24.0106 39.6759 24.5222 38.688 25.5453C37.7354 26.5332 37.0121 27.7681 36.5182 29.25C36.0595 30.7318 35.8302 32.196 35.8302 33.6426C35.8302 33.9954 35.8302 34.2953 35.8302 34.5423C35.8655 34.7893 35.9007 35.0363 35.936 35.2832C35.2657 35.2832 34.7188 35.0539 34.2954 34.5952C33.9073 34.1013 33.6074 33.5191 33.3957 32.8488C33.2193 32.1431 33.1311 31.508 33.1311 30.9435C33.1311 29.7792 33.4486 28.6678 34.0837 27.6094C34.7188 26.5509 35.5303 25.5983 36.5182 24.7515C37.5414 23.9047 38.6528 23.252 39.8524 22.7933C41.0872 22.2994 42.2868 22.0524 43.4511 22.0524C44.6155 22.0524 45.5857 22.3876 46.3619 23.0579C47.1734 23.693 47.7732 24.8573 48.1613 26.5509C48.5847 28.2444 48.7964 30.6965 48.7964 33.9072C48.7964 36.0947 48.7082 38.4234 48.5318 40.8931C48.3907 43.3629 48.2319 45.7974 48.0555 48.1965C47.8791 50.5957 47.7556 52.7832 47.685 54.759C48.2495 52.6068 49.0434 50.3135 50.0666 47.879C51.125 45.4445 52.2717 43.0277 53.5066 40.6285C54.7767 38.194 56.0293 35.9183 57.2641 33.8014C58.499 31.6844 59.6104 29.8498 60.5983 28.2974C61.5862 26.7449 62.3095 25.6159 62.7682 24.9103C63.2621 24.2046 63.6855 23.6754 64.0383 23.3226C64.3912 22.9345 64.8498 22.7404 65.4143 22.7404C65.9083 22.7404 66.4728 22.8639 67.1079 23.1109C66.8609 23.7459 66.5081 24.6986 66.0494 25.9687C65.626 27.2036 65.185 28.7207 64.7263 30.5201C64.1618 32.6724 63.5973 35.1245 63.0328 37.8765C62.4683 40.5932 61.939 43.3629 61.4451 46.1855C60.9864 49.008 60.616 51.6718 60.3337 54.1769C60.0514 56.6466 59.9103 58.7283 59.9103 60.4218C59.9103 61.1981 59.9456 61.7979 60.0162 62.2212C60.0867 62.6446 60.1749 63.0151 60.2808 63.3326C60.4219 63.6855 60.563 64.1618 60.7042 64.7616C59.5046 64.7616 58.5872 64.5675 57.9522 64.1794C57.3171 63.7913 56.8937 63.1562 56.682 62.2742C56.4703 61.4274 56.3645 60.2807 56.3645 58.8341C56.3645 54.6356 56.8937 50.1371 57.9522 45.3387C59.0459 40.505 60.2808 35.4949 61.6568 30.3084C60.6336 31.6139 59.5575 33.2722 58.4285 35.2832C57.3347 37.259 56.2233 39.4113 55.0943 41.7399C54.0005 44.0332 52.9421 46.3442 51.9189 48.6729C50.931 50.9662 50.0489 53.1008 49.2727 55.0766C48.4965 57.0524 47.8967 58.693 47.4733 59.9985C47.2616 60.069 47.1205 60.1219 47.0499 60.1572C46.9794 60.1925 46.8559 60.2101 46.6795 60.2101C45.7269 60.2101 45.0918 59.6456 44.7742 58.5166C44.492 57.3876 44.3508 55.7999 44.3508 53.7535C44.3508 52.3069 44.3861 50.5957 44.4567 48.6199C44.5625 46.6088 44.6684 44.5448 44.7742 42.4279C44.8801 40.311 44.9683 38.2822 45.0388 36.3417C45.1447 34.3659 45.1976 32.6724 45.1976 31.2611C45.1976 30.5554 45.18 29.9733 45.1447 29.5146C45.1447 29.0559 45.1271 28.6502 45.0918 28.2974C42.2692 34.8599 39.9053 40.4697 38 45.127C36.0948 49.749 34.4895 53.5065 33.184 56.3997C31.9139 59.2928 30.7848 61.4097 29.7969 62.7505C28.809 64.0912 27.8388 64.7616 26.8861 64.7616ZM72.4188 62.4859C70.2666 62.4859 68.6436 61.8861 67.5499 60.6865C66.4914 59.5221 65.9622 58.0756 65.9622 56.3467C65.9622 54.759 66.3503 53.0831 67.1265 51.319C67.938 49.5549 68.9965 47.8966 70.3019 46.3442C71.6426 44.7918 73.1068 43.5393 74.6945 42.5867C76.2822 41.5988 77.8523 41.1048 79.4047 41.1048C80.2162 41.1048 80.9571 41.3165 81.6275 41.7399C82.3332 42.1633 82.686 43.0277 82.686 44.3331C82.686 45.6739 82.2802 46.944 81.4687 48.1436C80.6925 49.3079 79.6517 50.3488 78.3463 51.2661C77.0761 52.1834 75.6648 52.942 74.1124 53.5418C72.5952 54.1063 71.0781 54.4591 69.561 54.6003C69.4904 54.9531 69.4375 55.2883 69.4022 55.6058C69.3669 55.9234 69.3493 56.2233 69.3493 56.5055C69.3493 57.0347 69.4022 57.564 69.5081 58.0932C69.6492 58.6224 69.8785 59.1164 70.1961 59.5751C70.5136 59.9985 70.937 60.3336 71.4662 60.5806C72.0307 60.8276 72.7187 60.9511 73.5302 60.9511C75.0474 60.9511 76.5469 60.5277 78.0287 59.6809C79.5106 58.7989 80.8866 57.6522 82.1567 56.2409C83.4269 54.8296 84.503 53.2772 85.3851 51.5836L86.0201 52.0599C85.0675 54.1769 83.8503 56.0116 82.3684 57.564C80.9219 59.1164 79.3342 60.316 77.6053 61.1628C75.9118 62.0448 74.183 62.4859 72.4188 62.4859ZM69.8256 53.5947C70.7782 53.2772 71.8543 52.8185 73.0539 52.2187C74.2535 51.5836 75.4002 50.8427 76.4939 49.9959C77.623 49.1492 78.5403 48.2142 79.246 47.191C79.9869 46.1678 80.3573 45.0917 80.3573 43.9627C80.3573 43.5746 80.2868 43.2747 80.1457 43.063C80.0045 42.8513 79.7046 42.7454 79.246 42.7454C78.3992 42.7454 77.4995 43.0806 76.5469 43.751C75.5942 44.3861 74.6769 45.2328 73.7948 46.2913C72.9128 47.3498 72.1189 48.5141 71.4133 49.7842C70.7076 51.0544 70.1784 52.3246 69.8256 53.5947ZM93.4828 61.5332C92.2832 61.5332 91.3305 61.2157 90.6249 60.5806C89.9545 59.9455 89.6193 59.1164 89.6193 58.0932C89.6193 57.0347 89.8663 55.9234 90.3603 54.759C90.8542 53.5947 91.3305 52.4481 91.7892 51.319C92.2832 50.1547 92.5301 49.1139 92.5301 48.1965C92.5301 47.0675 92.195 46.2384 91.5246 45.7091C90.8895 45.1446 90.2368 44.633 89.5664 44.1744C88.7549 46.256 87.9082 48.2318 87.0261 50.1018C86.144 51.9717 85.4208 53.383 84.8562 54.3357L84.3799 53.436C84.8739 52.5186 85.509 51.1779 86.2852 49.4138C87.0967 47.6497 87.8905 45.6386 88.6667 43.3805C88.3139 43.0277 88.1375 42.6043 88.1375 42.1104C88.1375 41.0519 88.4374 40.1875 89.0372 39.5171C89.637 38.8467 90.078 38.5116 90.3603 38.5116C90.7484 38.5116 90.9601 38.688 90.9954 39.0408C91.0659 39.3583 91.1012 39.6053 91.1012 39.7817C91.1012 39.9581 90.9954 40.311 90.7837 40.8402C90.6073 41.3341 90.519 41.634 90.519 41.7399C90.519 42.2338 90.7837 42.6925 91.3129 43.1159C91.8774 43.504 92.5125 43.9627 93.2181 44.4919C93.9238 44.9859 94.5412 45.6033 95.0705 46.3442C95.635 47.0499 95.9172 47.9672 95.9172 49.0962C95.9172 50.1547 95.6879 51.2308 95.2292 52.3246C94.8058 53.4183 94.3648 54.4591 93.9061 55.447C93.4828 56.4349 93.2711 57.2994 93.2711 58.0403C93.2711 58.6754 93.4298 59.0988 93.7474 59.3105C94.0649 59.5221 94.4354 59.628 94.8588 59.628C95.7055 59.628 96.57 59.3634 97.452 58.8341C98.3693 58.3049 99.2514 57.6345 100.098 56.8231C100.945 56.0116 101.704 55.1648 102.374 54.2827C103.044 53.3654 103.538 52.5186 103.856 51.7424L104.544 52.2716C103.873 53.7535 102.956 55.2177 101.792 56.6643C100.627 58.0756 99.322 59.2399 97.8754 60.1572C96.4641 61.0746 94.9999 61.5332 93.4828 61.5332ZM108.389 63.1209C106.695 63.1209 105.284 62.5564 104.155 61.4274C103.026 60.2984 102.462 58.6048 102.462 56.3467C102.462 54.5826 102.797 52.8714 103.467 51.2132C104.173 49.5196 105.09 48.0025 106.219 46.6618C107.348 45.321 108.601 44.2626 109.977 43.4864C111.353 42.6749 112.711 42.2691 114.052 42.2691C115.498 42.2691 116.486 42.6925 117.015 43.5393C117.545 44.3861 117.809 45.2681 117.809 46.1855C117.809 47.2086 117.562 48.1083 117.068 48.8845C116.61 49.6608 115.975 50.0489 115.163 50.0489C114.563 50.0489 114.052 49.7842 113.628 49.255C114.158 48.9728 114.616 48.4082 115.004 47.5615C115.392 46.6794 115.587 45.8503 115.587 45.0741C115.587 44.6507 115.498 44.3331 115.322 44.1214C115.181 43.8745 114.881 43.751 114.422 43.751C113.47 43.751 112.482 44.1744 111.459 45.0211C110.471 45.8679 109.536 46.9617 108.654 48.3024C107.807 49.6431 107.101 51.0544 106.537 52.5363C106.007 54.0181 105.743 55.4118 105.743 56.7172C105.743 57.811 106.007 58.8165 106.537 59.7338C107.066 60.6512 108.089 61.1098 109.606 61.1098C111.017 61.1098 112.429 60.7217 113.84 59.9455C115.287 59.1693 116.627 58.0579 117.862 56.6114C119.097 55.1648 120.085 53.4712 120.826 51.5307L121.514 52.0599C120.702 54.1769 119.591 56.0821 118.18 57.7757C116.768 59.4339 115.216 60.7394 113.523 61.692C111.829 62.6446 110.118 63.1209 108.389 63.1209ZM123.644 61.5332C122.268 61.5332 121.245 61.0922 120.574 60.2101C119.904 59.3634 119.569 58.3225 119.569 57.0877C119.569 56.2762 119.71 55.253 119.992 54.0181C120.31 52.7832 120.715 51.4954 121.209 50.1547C121.703 48.7787 122.268 47.4909 122.903 46.2913C123.573 45.0917 124.279 44.1214 125.02 43.3805C125.761 42.6043 126.484 42.2162 127.19 42.2162C127.507 42.2162 127.772 42.322 127.983 42.5337C128.23 42.7102 128.354 42.9924 128.354 43.3805C128.354 43.8039 128.072 44.4919 127.507 45.4445C126.978 46.3971 126.343 47.4909 125.602 48.7258C124.861 49.9607 124.208 51.2661 123.644 52.6421C123.114 53.9828 122.85 55.2706 122.85 56.5055C122.85 57.7757 123.062 58.6224 123.485 59.0458C123.908 59.4692 124.561 59.6809 125.443 59.6809C126.643 59.6809 127.913 59.0811 129.254 57.8815C130.63 56.6819 132.076 54.5826 133.593 51.5836L134.07 52.1129C133.046 55.1471 131.565 57.4758 129.624 59.0988C127.719 60.7217 125.725 61.5332 123.644 61.5332ZM129.995 37.2943C129.43 37.2943 128.918 37.1532 128.46 36.8709C128.036 36.5887 127.825 36.1477 127.825 35.5479C127.825 34.8069 128.248 34.1718 129.095 33.6426C129.977 33.0781 130.841 32.7958 131.688 32.7958C132.217 32.7958 132.641 32.9193 132.958 33.1663C133.276 33.4133 133.435 33.8367 133.435 34.4365C133.435 35.1068 133.064 35.7596 132.323 36.3946C131.617 36.9944 130.841 37.2943 129.995 37.2943ZM135.139 62.6446C134.045 62.6446 133.128 62.2742 132.387 61.5332C131.611 60.8276 131.223 59.7338 131.223 58.252C131.223 56.9818 131.505 55.6235 132.07 54.1769C132.634 52.695 133.41 51.2485 134.398 49.8372C135.386 48.3906 136.498 47.0852 137.732 45.9208C139.003 44.7212 140.326 43.7686 141.702 43.063C143.113 42.3573 144.507 42.0045 145.883 42.0045C147.259 42.0045 148.405 42.375 149.323 43.1159C150.24 43.8215 150.699 44.7742 150.699 45.9738C150.699 46.8558 150.452 47.4556 149.958 47.7732C149.499 48.0907 148.882 48.2495 148.105 48.2495C148.176 47.9672 148.229 47.6673 148.264 47.3498C148.335 46.9969 148.37 46.6794 148.37 46.3971C148.37 45.5857 148.176 44.8977 147.788 44.3331C147.4 43.7333 146.729 43.4334 145.777 43.4334C144.789 43.4334 143.783 43.7863 142.76 44.4919C141.737 45.1623 140.749 46.0796 139.796 47.2439C138.844 48.373 137.997 49.6078 137.256 50.9486C136.515 52.2893 135.933 53.6124 135.51 54.9178C135.086 56.2233 134.875 57.3876 134.875 58.4108C134.875 59.7868 135.351 60.4748 136.304 60.4748C137.115 60.4748 137.997 60.1043 138.95 59.3634C139.902 58.5872 140.873 57.6169 141.861 56.4526C142.884 55.253 143.854 54.0181 144.771 52.748C145.689 51.4778 146.5 50.3135 147.206 49.255C147.347 49.0433 147.435 48.9375 147.47 48.9375C147.682 48.9728 147.947 49.0433 148.264 49.1492C148.617 49.255 148.917 49.3961 149.164 49.5726C149.411 49.749 149.534 49.9783 149.534 50.2606C149.534 50.5781 149.376 51.0191 149.058 51.5836C148.741 52.1129 148.388 52.7303 148 53.436C147.612 54.1416 147.259 54.8649 146.941 55.6058C146.624 56.3115 146.465 56.9818 146.465 57.6169C146.465 58.1461 146.606 58.6754 146.888 59.2046C147.17 59.6986 147.629 59.9455 148.264 59.9455C149.217 59.9455 150.469 59.2575 152.022 57.8815C153.574 56.4702 155.144 54.3709 156.732 51.5836L157.261 52.1129C156.52 54.0181 155.568 55.694 154.403 57.1406C153.239 58.5872 151.987 59.7162 150.646 60.5277C149.34 61.3392 148.053 61.7449 146.782 61.7449C145.477 61.7449 144.507 61.3568 143.872 60.5806C143.272 59.8044 142.972 58.9576 142.972 58.0403C142.972 57.8286 142.99 57.5993 143.025 57.3523C143.06 57.07 143.095 56.7878 143.131 56.5055C141.614 58.5519 140.22 60.0867 138.95 61.1098C137.715 62.133 136.445 62.6446 135.139 62.6446Z" fill="#3747D9"/>
<path d="M31.2053 75.8737C32.0893 75.8737 32.8531 76.0404 33.4967 76.3738C34.148 76.6995 34.6442 77.1686 34.9854 77.7811C35.3344 78.3937 35.5088 79.1148 35.5088 79.9445C35.5088 80.7742 35.3344 81.4953 34.9854 82.1079C34.6442 82.7127 34.148 83.1779 33.4967 83.5036C32.8531 83.8215 32.0893 83.9805 31.2053 83.9805H28.6814V75.8737H31.2053ZM31.2053 83.1081C32.2521 83.1081 33.0508 82.8329 33.6013 82.2823C34.1519 81.7241 34.4271 80.9448 34.4271 79.9445C34.4271 78.9365 34.148 78.1495 33.5897 77.5834C33.0392 77.0174 32.2444 76.7343 31.2053 76.7343H29.7398V83.1081H31.2053ZM42.7204 80.5493C42.7204 80.7509 42.7088 80.9642 42.6855 81.189H37.5911C37.6299 81.8171 37.8431 82.3095 38.2308 82.6662C38.6263 83.0151 39.1032 83.1896 39.6615 83.1896C40.1189 83.1896 40.4989 83.0849 40.8013 82.8755C41.1115 82.6584 41.3286 82.3715 41.4526 82.0148H42.5925C42.4219 82.6274 42.0807 83.1275 41.5689 83.5152C41.0572 83.8952 40.4213 84.0851 39.6615 84.0851C39.0566 84.0851 38.5139 83.9495 38.0331 83.6781C37.5601 83.4067 37.1879 83.0228 36.9165 82.5266C36.6451 82.0226 36.5095 81.441 36.5095 80.7819C36.5095 80.1228 36.6413 79.5452 36.9049 79.0489C37.1685 78.5527 37.5369 78.1727 38.0099 77.9091C38.4906 77.6377 39.0411 77.502 39.6615 77.502C40.2663 77.502 40.8013 77.6338 41.2665 77.8974C41.7318 78.1611 42.0885 78.5255 42.3366 78.9908C42.5925 79.4483 42.7204 79.9678 42.7204 80.5493ZM41.6271 80.3283C41.6271 79.9251 41.5379 79.5801 41.3596 79.2932C41.1812 78.9985 40.937 78.7775 40.6268 78.6302C40.3244 78.4751 39.9871 78.3976 39.6149 78.3976C39.0799 78.3976 38.6224 78.5682 38.2425 78.9093C37.8703 79.2505 37.657 79.7235 37.6028 80.3283H41.6271ZM43.722 80.7819C43.722 80.1228 43.8539 79.5491 44.1175 79.0606C44.3811 78.5643 44.7456 78.1805 45.2108 77.9091C45.6838 77.6377 46.2227 77.502 46.8275 77.502C47.6107 77.502 48.2543 77.692 48.7583 78.0719C49.27 78.4519 49.6073 78.9791 49.7702 79.6537H48.6303C48.5218 79.266 48.3085 78.9597 47.9906 78.7349C47.6805 78.51 47.2928 78.3976 46.8275 78.3976C46.2227 78.3976 45.7342 78.6069 45.362 79.0257C44.9898 79.4366 44.8037 80.022 44.8037 80.7819C44.8037 81.5496 44.9898 82.1428 45.362 82.5615C45.7342 82.9802 46.2227 83.1896 46.8275 83.1896C47.2928 83.1896 47.6805 83.081 47.9906 82.8639C48.3008 82.6468 48.514 82.3366 48.6303 81.9334H49.7702C49.5996 82.5847 49.2584 83.1081 48.7466 83.5036C48.2349 83.8913 47.5952 84.0851 46.8275 84.0851C46.2227 84.0851 45.6838 83.9495 45.2108 83.6781C44.7456 83.4067 44.3811 83.0228 44.1175 82.5266C43.8539 82.0303 43.722 81.4488 43.722 80.7819ZM53.9622 84.0851C53.3652 84.0851 52.8224 83.9495 52.3339 83.6781C51.8532 83.4067 51.4732 83.0228 51.1941 82.5266C50.9227 82.0226 50.787 81.441 50.787 80.7819C50.787 80.1306 50.9265 79.5568 51.2057 79.0606C51.4926 78.5565 51.8803 78.1727 52.3688 77.9091C52.8573 77.6377 53.404 77.502 54.0088 77.502C54.6136 77.502 55.1602 77.6377 55.6487 77.9091C56.1372 78.1727 56.5211 78.5527 56.8002 79.0489C57.0871 79.5452 57.2306 80.1228 57.2306 80.7819C57.2306 81.441 57.0832 82.0226 56.7886 82.5266C56.5017 83.0228 56.1101 83.4067 55.6138 83.6781C55.1176 83.9495 54.5671 84.0851 53.9622 84.0851ZM53.9622 83.1547C54.3422 83.1547 54.6989 83.0655 55.0323 82.8872C55.3657 82.7088 55.6332 82.4413 55.8348 82.0846C56.0442 81.7279 56.1489 81.2937 56.1489 80.7819C56.1489 80.2702 56.0481 79.836 55.8465 79.4793C55.6449 79.1226 55.3812 78.8589 55.0556 78.6884C54.7299 78.51 54.3771 78.4208 53.9971 78.4208C53.6094 78.4208 53.2527 78.51 52.9271 78.6884C52.6092 78.8589 52.3533 79.1226 52.1594 79.4793C51.9656 79.836 51.8687 80.2702 51.8687 80.7819C51.8687 81.3015 51.9617 81.7396 52.1478 82.0962C52.3417 82.4529 52.5975 82.7204 52.9154 82.8988C53.2334 83.0694 53.5823 83.1547 53.9622 83.1547ZM59.6806 78.6418C59.8667 78.2774 60.1303 77.9944 60.4715 77.7928C60.8205 77.5912 61.243 77.4904 61.7393 77.4904V78.5837H61.4602C60.2738 78.5837 59.6806 79.2273 59.6806 80.5144V83.9805H58.6222V77.6067H59.6806V78.6418ZM62.5656 80.7703C62.5656 80.119 62.6975 79.5491 62.9611 79.0606C63.2247 78.5643 63.5853 78.1805 64.0428 77.9091C64.508 77.6377 65.0237 77.502 65.5897 77.502C66.148 77.502 66.6326 77.6222 67.0436 77.8626C67.4546 78.1029 67.7608 78.4053 67.9624 78.7698V77.6067H69.0325V83.9805H67.9624V82.7941C67.7531 83.1663 67.439 83.4765 67.0203 83.7246C66.6094 83.965 66.1286 84.0851 65.5781 84.0851C65.012 84.0851 64.5003 83.9456 64.0428 83.6664C63.5853 83.3873 63.2247 82.9957 62.9611 82.4917C62.6975 81.9877 62.5656 81.4139 62.5656 80.7703ZM67.9624 80.7819C67.9624 80.3012 67.8655 79.8825 67.6717 79.5258C67.4778 79.1691 67.2142 78.8977 66.8808 78.7116C66.5551 78.5178 66.1945 78.4208 65.7991 78.4208C65.4036 78.4208 65.0431 78.5139 64.7174 78.7C64.3917 78.8861 64.132 79.1575 63.9381 79.5142C63.7443 79.8708 63.6473 80.2896 63.6473 80.7703C63.6473 81.2588 63.7443 81.6853 63.9381 82.0497C64.132 82.4064 64.3917 82.6817 64.7174 82.8755C65.0431 83.0616 65.4036 83.1547 65.7991 83.1547C66.1945 83.1547 66.5551 83.0616 66.8808 82.8755C67.2142 82.6817 67.4778 82.4064 67.6717 82.0497C67.8655 81.6853 67.9624 81.2627 67.9624 80.7819ZM73.5311 83.1896C73.9964 83.1896 74.3841 83.081 74.6942 82.8639C75.0044 82.6468 75.2176 82.3366 75.334 81.9334H76.4738C76.3187 82.5382 76.0124 83.0345 75.5549 83.4222C75.1052 83.8021 74.5392 84.0192 73.8568 84.0735V84.6551C74.3143 84.6473 74.6787 84.7442 74.9501 84.9458C75.2215 85.1474 75.3572 85.4343 75.3572 85.8065C75.3572 86.171 75.2254 86.4618 74.9618 86.6789C74.6981 86.896 74.3569 87.0045 73.9382 87.0045H72.6007V86.3183H73.7289C73.9848 86.3183 74.1709 86.2795 74.2872 86.202C74.4112 86.1245 74.4733 85.9926 74.4733 85.8065C74.4733 85.6282 74.4112 85.5003 74.2872 85.4227C74.1709 85.3452 73.9848 85.3064 73.7289 85.3064H73.1473V84.0619C72.6123 84.0076 72.1393 83.8409 71.7283 83.5618C71.3174 83.2749 70.9956 82.8949 70.763 82.4219C70.5381 81.9412 70.4257 81.3945 70.4257 80.7819C70.4257 80.1228 70.5575 79.5491 70.8211 79.0606C71.0848 78.5643 71.4492 78.1805 71.9144 77.9091C72.3874 77.6377 72.9263 77.502 73.5311 77.502C74.3143 77.502 74.9579 77.692 75.4619 78.0719C75.9737 78.4519 76.311 78.9791 76.4738 79.6537H75.334C75.2254 79.266 75.0122 78.9597 74.6942 78.7349C74.3841 78.51 73.9964 78.3976 73.5311 78.3976C72.9263 78.3976 72.4378 78.6069 72.0656 79.0257C71.6934 79.4366 71.5074 80.022 71.5074 80.7819C71.5074 81.5496 71.6934 82.1428 72.0656 82.5615C72.4378 82.9802 72.9263 83.1896 73.5311 83.1896ZM77.4906 80.7703C77.4906 80.119 77.6224 79.5491 77.8861 79.0606C78.1497 78.5643 78.5102 78.1805 78.9677 77.9091C79.433 77.6377 79.9486 77.502 80.5147 77.502C81.0729 77.502 81.5576 77.6222 81.9685 77.8626C82.3795 78.1029 82.6858 78.4053 82.8874 78.7698V77.6067H83.9574V83.9805H82.8874V82.7941C82.678 83.1663 82.364 83.4765 81.9453 83.7246C81.5343 83.965 81.0536 84.0851 80.503 84.0851C79.937 84.0851 79.4252 83.9456 78.9677 83.6664C78.5102 83.3873 78.1497 82.9957 77.8861 82.4917C77.6224 81.9877 77.4906 81.4139 77.4906 80.7703ZM82.8874 80.7819C82.8874 80.3012 82.7905 79.8825 82.5966 79.5258C82.4028 79.1691 82.1391 78.8977 81.8057 78.7116C81.48 78.5178 81.1195 78.4208 80.724 78.4208C80.3286 78.4208 79.968 78.5139 79.6423 78.7C79.3167 78.8861 79.0569 79.1575 78.8631 79.5142C78.6692 79.8708 78.5723 80.2896 78.5723 80.7703C78.5723 81.2588 78.6692 81.6853 78.8631 82.0497C79.0569 82.4064 79.3167 82.6817 79.6423 82.8755C79.968 83.0616 80.3286 83.1547 80.724 83.1547C81.1195 83.1547 81.48 83.0616 81.8057 82.8755C82.1391 82.6817 82.4028 82.4064 82.5966 82.0497C82.7905 81.6853 82.8874 81.2627 82.8874 80.7819ZM79.2236 76.9204C79.2779 76.525 79.4058 76.2226 79.6074 76.0132C79.8168 75.8039 80.0766 75.6992 80.3867 75.6992C80.534 75.6992 80.6581 75.7263 80.7589 75.7806C80.8675 75.8271 80.9954 75.8969 81.1427 75.99C81.2513 76.0675 81.3482 76.1295 81.4335 76.1761C81.5188 76.2148 81.6119 76.2342 81.7127 76.2342C81.8445 76.2342 81.9569 76.1916 82.05 76.1063C82.143 76.021 82.2012 75.8969 82.2244 75.7341H82.8292C82.7827 76.1218 82.6548 76.4203 82.4454 76.6297C82.2361 76.839 81.9763 76.9437 81.6661 76.9437C81.5188 76.9437 81.387 76.9204 81.2707 76.8739C81.1621 76.8196 81.0381 76.7421 80.8985 76.6413C80.7744 76.5638 80.6736 76.5056 80.5961 76.4668C80.5263 76.4281 80.441 76.4087 80.3402 76.4087C80.2084 76.4087 80.0959 76.4513 80.0029 76.5366C79.9176 76.6219 79.8633 76.7499 79.8401 76.9204H79.2236ZM88.5259 84.0851C87.9288 84.0851 87.386 83.9495 86.8975 83.6781C86.4168 83.4067 86.0369 83.0228 85.7577 82.5266C85.4863 82.0226 85.3506 81.441 85.3506 80.7819C85.3506 80.1306 85.4902 79.5568 85.7693 79.0606C86.0562 78.5565 86.4439 78.1727 86.9324 77.9091C87.4209 77.6377 87.9676 77.502 88.5724 77.502C89.1772 77.502 89.7239 77.6377 90.2124 77.9091C90.7009 78.1727 91.0847 78.5527 91.3639 79.0489C91.6508 79.5452 91.7942 80.1228 91.7942 80.7819C91.7942 81.441 91.6469 82.0226 91.3522 82.5266C91.0653 83.0228 90.6737 83.4067 90.1775 83.6781C89.6812 83.9495 89.1307 84.0851 88.5259 84.0851ZM88.5259 83.1547C88.9058 83.1547 89.2625 83.0655 89.5959 82.8872C89.9294 82.7088 90.1969 82.4413 90.3985 82.0846C90.6078 81.7279 90.7125 81.2937 90.7125 80.7819C90.7125 80.2702 90.6117 79.836 90.4101 79.4793C90.2085 79.1226 89.9449 78.8589 89.6192 78.6884C89.2935 78.51 88.9407 78.4208 88.5608 78.4208C88.1731 78.4208 87.8164 78.51 87.4907 78.6884C87.1728 78.8589 86.9169 79.1226 86.7231 79.4793C86.5292 79.836 86.4323 80.2702 86.4323 80.7819C86.4323 81.3015 86.5254 81.7396 86.7114 82.0962C86.9053 82.4529 87.1612 82.7204 87.4791 82.8988C87.797 83.0694 88.1459 83.1547 88.5259 83.1547ZM102.509 83.9805L101.451 82.9104C101.055 83.3214 100.633 83.6277 100.183 83.8293C99.7333 84.0231 99.2254 84.12 98.6594 84.12C98.1011 84.12 97.6049 84.0192 97.1706 83.8176C96.7442 83.616 96.4107 83.3291 96.1704 82.9569C95.9377 82.5847 95.8214 82.1505 95.8214 81.6543C95.8214 81.0882 95.9804 80.592 96.2983 80.1655C96.624 79.7313 97.1008 79.3901 97.7289 79.142C97.4808 78.8473 97.3025 78.5759 97.1939 78.3278C97.0853 78.0797 97.0311 77.8083 97.0311 77.5136C97.0311 77.1724 97.1164 76.8662 97.2869 76.5948C97.4653 76.3156 97.7173 76.0985 98.043 75.9434C98.3686 75.7884 98.7447 75.7108 99.1712 75.7108C99.5899 75.7108 99.9543 75.7922 100.264 75.9551C100.575 76.1179 100.807 76.3466 100.962 76.6413C101.117 76.9282 101.187 77.25 101.172 77.6067H100.113C100.121 77.2888 100.032 77.0406 99.8458 76.8623C99.6597 76.6762 99.4193 76.5831 99.1246 76.5831C98.8145 76.5831 98.5625 76.6723 98.3686 76.8507C98.1825 77.0212 98.0895 77.2422 98.0895 77.5136C98.0895 77.7462 98.1515 77.9711 98.2756 78.1882C98.4074 78.4053 98.6245 78.6728 98.9269 78.9908L101.346 81.4216L101.556 81.096L102.346 79.77H103.486L102.533 81.4216C102.401 81.6543 102.246 81.8985 102.067 82.1544L103.893 83.9805H102.509ZM98.6594 83.2128C99.0781 83.2128 99.4542 83.1314 99.7876 82.9686C100.129 82.8057 100.451 82.5537 100.753 82.2126L98.3686 79.8166C97.3761 80.1965 96.8799 80.7974 96.8799 81.6194C96.8799 82.0769 97.0427 82.4568 97.3684 82.7592C97.7018 83.0616 98.1321 83.2128 98.6594 83.2128ZM109.044 83.1198H111.882V83.9805H107.986V75.8737H109.044V83.1198ZM115.786 84.0851C115.189 84.0851 114.646 83.9495 114.158 83.6781C113.677 83.4067 113.297 83.0228 113.018 82.5266C112.747 82.0226 112.611 81.441 112.611 80.7819C112.611 80.1306 112.75 79.5568 113.03 79.0606C113.316 78.5565 113.704 78.1727 114.193 77.9091C114.681 77.6377 115.228 77.502 115.833 77.502C116.437 77.502 116.984 77.6377 117.473 77.9091C117.961 78.1727 118.345 78.5527 118.624 79.0489C118.911 79.5452 119.054 80.1228 119.054 80.7819C119.054 81.441 118.907 82.0226 118.612 82.5266C118.326 83.0228 117.934 83.4067 117.438 83.6781C116.941 83.9495 116.391 84.0851 115.786 84.0851ZM115.786 83.1547C116.166 83.1547 116.523 83.0655 116.856 82.8872C117.19 82.7088 117.457 82.4413 117.659 82.0846C117.868 81.7279 117.973 81.2937 117.973 80.7819C117.973 80.2702 117.872 79.836 117.67 79.4793C117.469 79.1226 117.205 78.8589 116.879 78.6884C116.554 78.51 116.201 78.4208 115.821 78.4208C115.433 78.4208 115.077 78.51 114.751 78.6884C114.433 78.8589 114.177 79.1226 113.983 79.4793C113.789 79.836 113.692 80.2702 113.692 80.7819C113.692 81.3015 113.786 81.7396 113.972 82.0962C114.165 82.4529 114.421 82.7204 114.739 82.8988C115.057 83.0694 115.406 83.1547 115.786 83.1547ZM120.051 80.7819C120.051 80.1228 120.182 79.5491 120.446 79.0606C120.71 78.5643 121.074 78.1805 121.539 77.9091C122.012 77.6377 122.551 77.502 123.156 77.502C123.939 77.502 124.583 77.692 125.087 78.0719C125.599 78.4519 125.936 78.9791 126.099 79.6537H124.959C124.85 79.266 124.637 78.9597 124.319 78.7349C124.009 78.51 123.621 78.3976 123.156 78.3976C122.551 78.3976 122.063 78.6069 121.691 79.0257C121.318 79.4366 121.132 80.022 121.132 80.7819C121.132 81.5496 121.318 82.1428 121.691 82.5615C122.063 82.9802 122.551 83.1896 123.156 83.1896C123.621 83.1896 124.009 83.081 124.319 82.8639C124.629 82.6468 124.843 82.3366 124.959 81.9334H126.099C125.928 82.5847 125.587 83.1081 125.075 83.5036C124.563 83.8913 123.924 84.0851 123.156 84.0851C122.551 84.0851 122.012 83.9495 121.539 83.6781C121.074 83.4067 120.71 83.0228 120.446 82.5266C120.182 82.0303 120.051 81.4488 120.051 80.7819ZM127.115 80.7703C127.115 80.119 127.247 79.5491 127.511 79.0606C127.775 78.5643 128.135 78.1805 128.593 77.9091C129.058 77.6377 129.574 77.502 130.14 77.502C130.698 77.502 131.182 77.6222 131.593 77.8626C132.004 78.1029 132.311 78.4053 132.512 78.7698V77.6067H133.582V83.9805H132.512V82.7941C132.303 83.1663 131.989 83.4765 131.57 83.7246C131.159 83.965 130.678 84.0851 130.128 84.0851C129.562 84.0851 129.05 83.9456 128.593 83.6664C128.135 83.3873 127.775 82.9957 127.511 82.4917C127.247 81.9877 127.115 81.4139 127.115 80.7703ZM132.512 80.7819C132.512 80.3012 132.415 79.8825 132.222 79.5258C132.028 79.1691 131.764 78.8977 131.431 78.7116C131.105 78.5178 130.744 78.4208 130.349 78.4208C129.953 78.4208 129.593 78.5139 129.267 78.7C128.942 78.8861 128.682 79.1575 128.488 79.5142C128.294 79.8708 128.197 80.2896 128.197 80.7703C128.197 81.2588 128.294 81.6853 128.488 82.0497C128.682 82.4064 128.942 82.6817 129.267 82.8755C129.593 83.0616 129.953 83.1547 130.349 83.1547C130.744 83.1547 131.105 83.0616 131.431 82.8755C131.764 82.6817 132.028 82.4064 132.222 82.0497C132.415 81.6853 132.512 81.2627 132.512 80.7819ZM138.081 83.1896C138.546 83.1896 138.934 83.081 139.244 82.8639C139.554 82.6468 139.767 82.3366 139.884 81.9334H141.024C140.869 82.5382 140.562 83.0345 140.105 83.4222C139.655 83.8021 139.089 84.0192 138.407 84.0735V84.6551C138.864 84.6473 139.229 84.7442 139.5 84.9458C139.771 85.1474 139.907 85.4343 139.907 85.8065C139.907 86.171 139.775 86.4618 139.512 86.6789C139.248 86.896 138.907 87.0045 138.488 87.0045H137.151V86.3183H138.279C138.535 86.3183 138.721 86.2795 138.837 86.202C138.961 86.1245 139.023 85.9926 139.023 85.8065C139.023 85.6282 138.961 85.5003 138.837 85.4227C138.721 85.3452 138.535 85.3064 138.279 85.3064H137.697V84.0619C137.162 84.0076 136.689 83.8409 136.278 83.5618C135.867 83.2749 135.545 82.8949 135.313 82.4219C135.088 81.9412 134.976 81.3945 134.976 80.7819C134.976 80.1228 135.107 79.5491 135.371 79.0606C135.635 78.5643 135.999 78.1805 136.464 77.9091C136.937 77.6377 137.476 77.502 138.081 77.502C138.864 77.502 139.508 77.692 140.012 78.0719C140.524 78.4519 140.861 78.9791 141.024 79.6537H139.884C139.775 79.266 139.562 78.9597 139.244 78.7349C138.934 78.51 138.546 78.3976 138.081 78.3976C137.476 78.3976 136.988 78.6069 136.615 79.0257C136.243 79.4366 136.057 80.022 136.057 80.7819C136.057 81.5496 136.243 82.1428 136.615 82.5615C136.988 82.9802 137.476 83.1896 138.081 83.1896ZM142.04 80.7703C142.04 80.119 142.172 79.5491 142.436 79.0606C142.7 78.5643 143.06 78.1805 143.518 77.9091C143.983 77.6377 144.498 77.502 145.065 77.502C145.623 77.502 146.107 77.6222 146.518 77.8626C146.929 78.1029 147.236 78.4053 147.437 78.7698V77.6067H148.507V83.9805H147.437V82.7941C147.228 83.1663 146.914 83.4765 146.495 83.7246C146.084 83.965 145.603 84.0851 145.053 84.0851C144.487 84.0851 143.975 83.9456 143.518 83.6664C143.06 83.3873 142.7 82.9957 142.436 82.4917C142.172 81.9877 142.04 81.4139 142.04 80.7703ZM147.437 80.7819C147.437 80.3012 147.34 79.8825 147.146 79.5258C146.953 79.1691 146.689 78.8977 146.356 78.7116C146.03 78.5178 145.669 78.4208 145.274 78.4208C144.878 78.4208 144.518 78.5139 144.192 78.7C143.867 78.8861 143.607 79.1575 143.413 79.5142C143.219 79.8708 143.122 80.2896 143.122 80.7703C143.122 81.2588 143.219 81.6853 143.413 82.0497C143.607 82.4064 143.867 82.6817 144.192 82.8755C144.518 83.0616 144.878 83.1547 145.274 83.1547C145.669 83.1547 146.03 83.0616 146.356 82.8755C146.689 82.6817 146.953 82.4064 147.146 82.0497C147.34 81.6853 147.437 81.2627 147.437 80.7819ZM143.773 76.9204C143.828 76.525 143.956 76.2226 144.157 76.0132C144.367 75.8039 144.626 75.6992 144.937 75.6992C145.084 75.6992 145.208 75.7263 145.309 75.7806C145.417 75.8271 145.545 75.8969 145.693 75.99C145.801 76.0675 145.898 76.1295 145.983 76.1761C146.069 76.2148 146.162 76.2342 146.263 76.2342C146.394 76.2342 146.507 76.1916 146.6 76.1063C146.693 76.021 146.751 75.8969 146.774 75.7341H147.379C147.333 76.1218 147.205 76.4203 146.995 76.6297C146.786 76.839 146.526 76.9437 146.216 76.9437C146.069 76.9437 145.937 76.9204 145.821 76.8739C145.712 76.8196 145.588 76.7421 145.448 76.6413C145.324 76.5638 145.223 76.5056 145.146 76.4668C145.076 76.4281 144.991 76.4087 144.89 76.4087C144.758 76.4087 144.646 76.4513 144.553 76.5366C144.467 76.6219 144.413 76.7499 144.39 76.9204H143.773ZM153.076 84.0851C152.479 84.0851 151.936 83.9495 151.447 83.6781C150.967 83.4067 150.587 83.0228 150.308 82.5266C150.036 82.0226 149.9 81.441 149.9 80.7819C149.9 80.1306 150.04 79.5568 150.319 79.0606C150.606 78.5565 150.994 78.1727 151.482 77.9091C151.971 77.6377 152.517 77.502 153.122 77.502C153.727 77.502 154.274 77.6377 154.762 77.9091C155.251 78.1727 155.635 78.5527 155.914 79.0489C156.201 79.5452 156.344 80.1228 156.344 80.7819C156.344 81.441 156.197 82.0226 155.902 82.5266C155.615 83.0228 155.224 83.4067 154.727 83.6781C154.231 83.9495 153.681 84.0851 153.076 84.0851ZM153.076 83.1547C153.456 83.1547 153.812 83.0655 154.146 82.8872C154.479 82.7088 154.747 82.4413 154.948 82.0846C155.158 81.7279 155.262 81.2937 155.262 80.7819C155.262 80.2702 155.162 79.836 154.96 79.4793C154.758 79.1226 154.495 78.8589 154.169 78.6884C153.843 78.51 153.491 78.4208 153.111 78.4208C152.723 78.4208 152.366 78.51 152.041 78.6884C151.723 78.8589 151.467 79.1226 151.273 79.4793C151.079 79.836 150.982 80.2702 150.982 80.7819C150.982 81.3015 151.075 81.7396 151.261 82.0962C151.455 82.4529 151.711 82.7204 152.029 82.8988C152.347 83.0694 152.696 83.1547 153.076 83.1547Z" fill="#1627C0"/>
<path d="M68.9839 0.18082C67.4595 0.744296 65.9491 2.67312 65.2499 4.9487C64.8443 6.24903 64.8163 6.53077 64.8163 8.63297C64.8303 11.212 65.124 12.6207 65.8932 13.7476L66.3127 14.3761L66.0191 13.6176C65.5576 12.4256 65.166 10.2367 65.166 8.763C65.166 2.9982 68.4944 -0.686068 72.1865 1.04771C73.529 1.65453 74.9136 2.82483 77.0533 5.14375C78.7874 7.02923 81.3607 9.41317 81.4586 9.23979C81.4865 9.19645 80.9691 8.65464 80.2978 8.04782C79.6265 7.441 78.5776 6.37906 77.9623 5.68555C74.6478 1.97961 73.599 1.04771 71.9068 0.375869C70.8299 -0.035902 69.781 -0.122591 68.9839 0.18082Z" fill="#CFB21A"/>
<path d="M107.009 0.397544C105.723 0.939348 104.17 2.17466 102.576 3.99513C100.8 6.01064 98.9118 7.93946 98.1287 8.56796C97.7511 8.84969 97.4853 9.1531 97.5273 9.21812C97.6392 9.3915 100.254 6.98589 102.17 4.90536C105.275 1.56784 106.995 0.484233 108.981 0.65761C109.876 0.722627 110.296 0.874331 110.897 1.35112C112.771 2.80316 113.834 5.49051 113.834 8.763C113.834 10.2367 113.442 12.4256 112.981 13.6176L112.687 14.3761L113.107 13.7476C113.876 12.6207 114.17 11.212 114.184 8.63297C114.184 6.57411 114.142 6.22736 113.778 5.01372C113.274 3.32329 112.058 1.45948 110.939 0.700954C109.82 -0.0792437 108.38 -0.187605 107.009 0.397544Z" fill="#CFB21A"/>
<path d="M85.444 1.84891C85.6258 2.06564 86.3251 2.95419 86.9824 3.82108C87.6397 4.70964 88.4648 5.66322 88.8424 5.94496L89.4997 6.46509L90.171 5.94496C90.5346 5.66322 91.3597 4.70964 92.017 3.82108C92.6743 2.95419 93.3736 2.06564 93.5554 1.84891C93.891 1.48049 93.891 1.48049 93.4155 1.82724C93.1498 2.02229 92.3946 2.80249 91.7373 3.53934C91.08 4.29787 90.3108 5.07807 90.0311 5.29479C89.5277 5.66322 89.4717 5.66322 88.9823 5.29479C88.6886 5.07807 87.9194 4.29787 87.2621 3.53934C86.6048 2.80249 85.8496 2.02229 85.5839 1.82724C85.1084 1.48049 85.1084 1.48049 85.444 1.84891Z" fill="#CFB21A"/>
<path d="M84.1436 6.46546C85.1924 8.8494 86.4931 10.1497 88.395 10.7566C89.4159 11.0816 89.5838 11.0816 90.6047 10.7566C92.5066 10.1497 93.8072 8.8494 94.8561 6.46546C95.2477 5.5769 95.1918 5.62025 94.2268 7.07228C92.3528 9.84632 90.1991 10.7782 87.8216 9.82465C86.521 9.30452 85.9197 8.76271 84.7589 7.02894C83.7939 5.59858 83.752 5.55523 84.1436 6.46546Z" fill="#CFB21A"/>
<path d="M68.6199 7.13766C68.3122 7.39773 68.0046 7.87451 67.8647 8.30796C67.627 9.10983 67.7249 9.62996 68.0046 9.04481C68.4941 8.00455 70.1443 7.59277 70.9974 8.28628C72.256 9.28321 72.6057 11.8839 71.7805 14.0077C71.5848 14.5279 71.6127 14.5279 71.9903 13.8994C72.4518 13.1625 72.7175 12.0139 72.7175 10.8003C72.7036 9.28321 71.8924 7.44107 70.9974 6.92094C70.3681 6.55251 69.2073 6.66087 68.6199 7.13766Z" fill="#CFB21A"/>
<path d="M107.89 6.98595C106.24 8.13458 105.765 11.8839 107.009 13.8994C107.387 14.5279 107.415 14.5279 107.219 14.0077C106.394 11.8839 106.744 9.28321 108.002 8.28628C108.855 7.59278 110.506 8.00455 110.995 9.04481C111.275 9.62996 111.373 9.08816 111.135 8.30796C110.701 6.89927 109.009 6.20576 107.89 6.98595Z" fill="#CFB21A"/>
<path d="M62.1311 7.54878C61.1241 8.17727 61.5157 10.8646 62.6205 10.8646C63.6414 10.8646 64.1449 8.97914 63.4177 7.87386C63.0681 7.31039 62.6625 7.2237 62.1311 7.54878ZM63.2918 8.52403C63.5575 9.13085 63.4457 9.82436 63.0401 10.1711C62.6345 10.4962 62.159 10.2578 61.9632 9.58597C61.5856 8.28563 62.7744 7.31039 63.2918 8.52403Z" fill="#CFB21A"/>
<path d="M115.61 7.7655C114.813 8.74075 115.316 10.8646 116.379 10.8646C116.925 10.8646 117.47 9.97606 117.47 9.08751C117.47 7.65714 116.351 6.85527 115.61 7.7655ZM116.981 8.50236C117.218 9.06583 117.134 9.58597 116.715 10.1278C116.407 10.5395 115.82 10.2361 115.624 9.60764C115.246 8.32898 116.491 7.33206 116.981 8.50236Z" fill="#CFB21A"/>
<path d="M0.19131 8.74089C-0.0744057 9.06597 -0.0744057 9.06597 0.261236 9.49941C0.582892 9.93286 0.736729 9.93286 30.3711 9.88951C62.3269 9.8245 60.6208 9.88951 60.2571 8.8059C60.1313 8.43748 58.9006 8.4158 30.3011 8.4158C3.99525 8.4158 0.443042 8.45915 0.19131 8.74089Z" fill="#CFB21A"/>
<path d="M118.743 8.8059C118.379 9.88951 116.673 9.8245 148.629 9.88951C178.263 9.93286 178.417 9.93286 178.739 9.49941C179.074 9.06597 179.074 9.06597 178.809 8.74089C178.557 8.45915 175.005 8.4158 148.699 8.4158C120.099 8.4158 118.869 8.43748 118.743 8.8059Z" fill="#CFB21A"/>
<path d="M77.9481 9.71625C76.6755 10.0197 75.221 11.32 75.0532 12.3169C75.0112 12.5553 75.0952 12.9671 75.235 13.2488C75.4727 13.6823 75.5986 13.7256 76.8013 13.7039C77.9341 13.6823 78.3257 13.5522 79.7801 12.772C81.766 11.7318 81.5423 11.6451 79.1788 12.5336C77.3048 13.2488 76.144 13.3572 75.7105 12.8804C75.4588 12.577 75.4588 12.5553 75.8503 11.9051C76.5076 10.8432 77.5006 10.3014 79.011 10.193C79.7382 10.1497 80.6192 10.2147 80.9689 10.3447C81.8499 10.6482 81.8359 10.4748 80.9409 10.0847C79.948 9.65123 78.8152 9.49953 77.9481 9.71625Z" fill="#CFB21A"/>
<path d="M99.1496 9.71625C98.3804 9.88962 97.2896 10.3664 97.3595 10.4748C97.3875 10.5181 97.6952 10.4531 98.0308 10.3447C98.3804 10.2147 99.2615 10.1497 99.9887 10.193C101.499 10.3014 102.492 10.8432 103.149 11.9051C103.541 12.5553 103.541 12.577 103.289 12.8804C102.856 13.3572 101.695 13.2488 99.8209 12.5336C97.4574 11.6451 97.2337 11.7318 99.2195 12.772C100.674 13.5522 101.066 13.6823 102.198 13.7039C103.401 13.7256 103.527 13.6823 103.765 13.2488C104.1 12.5986 103.988 12.0135 103.359 11.2116C102.408 9.99799 100.604 9.34782 99.1496 9.71625Z" fill="#CFB21A"/>
<path d="M110.016 112.205C111.54 111.641 113.051 109.712 113.75 107.437C114.156 106.137 114.184 105.855 114.184 103.753C114.17 101.174 113.876 99.765 113.107 98.638L112.687 98.0095L112.981 98.768C113.442 99.96 113.834 102.149 113.834 103.623C113.834 109.387 110.505 113.072 106.813 111.338C105.471 110.731 104.086 109.561 101.947 107.242C100.212 105.356 97.6392 102.972 97.5413 103.146C97.5133 103.189 98.0308 103.731 98.702 104.338C99.3733 104.945 100.422 106.007 101.038 106.7C104.352 110.406 105.401 111.338 107.093 112.01C108.17 112.422 109.219 112.508 110.016 112.205Z" fill="#CFB21A"/>
<path d="M71.9904 111.988C73.277 111.446 74.8293 110.211 76.4236 108.39C78.1997 106.375 80.0877 104.446 80.8709 103.818C81.2485 103.536 81.5142 103.233 81.4722 103.168C81.3604 102.994 78.7452 105.4 76.8292 107.48C73.7245 110.818 72.0044 111.901 70.0185 111.728C69.1234 111.663 68.7039 111.511 68.1025 111.035C66.2285 109.582 65.1657 106.895 65.1657 103.623C65.1657 102.149 65.5572 99.96 66.0187 98.768L66.3124 98.0095L65.8929 98.638C65.1237 99.765 64.83 101.174 64.816 103.753C64.816 105.812 64.858 106.158 65.2216 107.372C65.7251 109.062 66.9418 110.926 68.0606 111.685C69.1794 112.465 70.6198 112.573 71.9904 111.988Z" fill="#CFB21A"/>
<path d="M93.5558 110.536C93.374 110.319 92.6747 109.431 92.0174 108.564C91.3601 107.675 90.535 106.722 90.1574 106.44L89.5001 105.92L88.8288 106.44C88.4652 106.722 87.6401 107.675 86.9828 108.564C86.3255 109.431 85.6262 110.319 85.4444 110.536C85.1088 110.905 85.1088 110.905 85.5843 110.558C85.85 110.363 86.6052 109.583 87.2625 108.846C87.9198 108.087 88.689 107.307 88.9687 107.09C89.4721 106.722 89.5281 106.722 90.0176 107.09C90.3112 107.307 91.0804 108.087 91.7377 108.846C92.395 109.583 93.1502 110.363 93.4159 110.558C93.8914 110.905 93.8914 110.905 93.5558 110.536Z" fill="#CFB21A"/>
<path d="M94.856 105.92C93.8071 103.536 92.5065 102.235 90.6045 101.629C89.5836 101.303 89.4158 101.303 88.3949 101.629C86.4929 102.235 85.1923 103.536 84.1434 105.92C83.7518 106.808 83.8078 106.765 84.7727 105.313C86.6467 102.539 88.8004 101.607 91.1779 102.56C92.4785 103.081 93.0799 103.622 94.2406 105.356C95.2056 106.787 95.2476 106.83 94.856 105.92Z" fill="#CFB21A"/>
<path d="M110.38 105.247C110.687 104.987 110.995 104.511 111.135 104.077C111.373 103.275 111.275 102.755 110.995 103.34C110.505 104.381 108.855 104.792 108.002 104.099C106.743 103.102 106.394 100.501 107.219 98.3774C107.415 97.8573 107.387 97.8573 107.009 98.4858C106.548 99.2226 106.282 100.371 106.282 101.585C106.296 103.102 107.107 104.944 108.002 105.464C108.631 105.833 109.792 105.724 110.38 105.247Z" fill="#CFB21A"/>
<path d="M71.1095 105.399C72.7597 104.251 73.2352 100.501 71.9905 98.4858C71.6129 97.8573 71.585 97.8573 71.7808 98.3774C72.6059 100.501 72.2562 103.102 70.9976 104.099C70.1445 104.792 68.4943 104.381 68.0048 103.34C67.7251 102.755 67.6272 103.297 67.8649 104.077C68.2985 105.486 69.9907 106.179 71.1095 105.399Z" fill="#CFB21A"/>
<path d="M116.869 104.836C117.876 104.208 117.484 101.521 116.379 101.521C115.358 101.521 114.855 103.406 115.582 104.511C115.932 105.075 116.337 105.162 116.869 104.836ZM115.708 103.861C115.442 103.254 115.554 102.561 115.96 102.214C116.365 101.889 116.841 102.127 117.037 102.799C117.414 104.1 116.225 105.075 115.708 103.861Z" fill="#CFB21A"/>
<path d="M63.3898 104.62C64.1869 103.645 63.6835 101.521 62.6206 101.521C62.0752 101.521 61.5298 102.409 61.5298 103.298C61.5298 104.728 62.6486 105.53 63.3898 104.62ZM62.0192 103.883C61.7815 103.319 61.8654 102.799 62.285 102.257C62.5926 101.846 63.18 102.149 63.3758 102.778C63.7534 104.056 62.5087 105.053 62.0192 103.883Z" fill="#CFB21A"/>
<path d="M178.809 103.644C179.074 103.319 179.074 103.319 178.739 102.886C178.417 102.452 178.263 102.452 148.629 102.496C116.673 102.561 118.379 102.496 118.743 103.579C118.869 103.948 120.099 103.969 148.699 103.969C175.005 103.969 178.557 103.926 178.809 103.644Z" fill="#CFB21A"/>
<path d="M60.2572 103.579C60.6208 102.496 62.327 102.561 30.3711 102.496C0.736767 102.452 0.582928 102.452 0.261269 102.886C-0.0743713 103.319 -0.0743713 103.319 0.191345 103.644C0.443077 103.926 3.99529 103.969 30.3012 103.969C58.9006 103.969 60.1313 103.948 60.2572 103.579Z" fill="#CFB21A"/>
<path d="M101.051 102.669C102.324 102.366 103.778 101.065 103.946 100.068C103.988 99.83 103.904 99.4182 103.765 99.1364C103.527 98.703 103.401 98.6597 102.198 98.6813C101.065 98.703 100.674 98.833 99.2194 99.6132C97.2335 100.653 97.4572 100.74 99.8207 99.8516C101.695 99.1364 102.855 99.0281 103.289 99.5049C103.541 99.8083 103.541 99.83 103.149 100.48C102.492 101.542 101.499 102.084 99.9885 102.192C99.2613 102.236 98.3803 102.171 98.0306 102.041C97.1496 101.737 97.1636 101.91 98.0586 102.301C99.0515 102.734 100.184 102.886 101.051 102.669Z" fill="#CFB21A"/>
<path d="M79.8502 102.669C80.6194 102.496 81.7102 102.019 81.6403 101.91C81.6123 101.867 81.3047 101.932 80.969 102.041C80.6194 102.171 79.7383 102.236 79.0111 102.192C77.5007 102.084 76.5078 101.542 75.8505 100.48C75.4589 99.83 75.4589 99.8083 75.7106 99.5049C76.1442 99.0281 77.3049 99.1364 79.1789 99.8516C81.5424 100.74 81.7662 100.653 79.7803 99.6132C78.3258 98.833 77.9343 98.703 76.8015 98.6813C75.5987 98.6597 75.4729 98.703 75.2351 99.1364C74.8995 99.7866 75.0114 100.372 75.6407 101.174C76.5917 102.387 78.3958 103.037 79.8502 102.669Z" fill="#CFB21A"/>
</svg>
