<svg width="200" height="126" viewBox="0 0 200 126" fill="none" xmlns="http://www.w3.org/2000/svg">
<path d="M33.6461 74.8445C33.8813 74.2957 34.528 72.8455 35.5863 70.4938C36.6446 68.1813 38.0164 65.1632 39.7018 61.4397C41.4264 57.6769 43.347 53.4243 45.4635 48.6816C47.6193 43.8998 49.8926 38.8436 52.2835 33.513C52.4011 33.2387 52.5187 32.8859 52.6363 32.4548C52.793 31.9844 52.8714 31.5337 52.8714 31.1025C52.8714 30.6714 52.7343 30.3186 52.4599 30.0443C52.2247 29.7307 51.6956 29.5739 50.8725 29.5739C49.2263 29.5739 47.8544 30.1422 46.757 31.2789C45.6987 32.3764 44.8952 33.7482 44.3465 35.3944C43.8369 37.0406 43.5822 38.6672 43.5822 40.2742C43.5822 40.6662 43.5822 40.9993 43.5822 41.2737C43.6214 41.5481 43.6605 41.8224 43.6997 42.0968C42.955 42.0968 42.3475 41.842 41.8772 41.3325C41.446 40.7838 41.1129 40.137 40.8777 39.3923C40.6817 38.6084 40.5837 37.9029 40.5837 37.2758C40.5837 35.9823 40.9365 34.7477 41.642 33.5718C42.3475 32.396 43.249 31.3377 44.3465 30.397C45.4831 29.4563 46.7178 28.7312 48.0504 28.2217C49.4223 27.6729 50.7549 27.3986 52.0483 27.3986C53.3418 27.3986 54.4197 27.7709 55.282 28.5156C56.1834 29.2212 56.8498 30.5146 57.2809 32.396C57.7513 34.2774 57.9864 37.0014 57.9864 40.5682C57.9864 42.9983 57.8884 45.5852 57.6925 48.3289C57.5357 51.0725 57.3593 53.777 57.1633 56.4423C56.9673 59.1076 56.8302 61.5377 56.7518 63.7326C57.3789 61.3417 58.2608 58.794 59.3975 56.0895C60.5733 53.3851 61.8472 50.7002 63.219 48.0349C64.63 45.3304 66.0215 42.8023 67.3933 40.4506C68.7651 38.0989 69.9998 36.0607 71.0972 34.3361C72.1947 32.6116 72.9982 31.3573 73.5078 30.5734C74.0565 29.7895 74.5268 29.2016 74.9188 28.8096C75.3107 28.3785 75.8203 28.1629 76.4474 28.1629C76.9961 28.1629 77.6233 28.3001 78.3288 28.5744C78.0544 29.28 77.6625 30.3382 77.1529 31.7493C76.6826 33.1211 76.1926 34.8065 75.6831 36.8054C75.056 39.1964 74.4289 41.9204 73.8017 44.9777C73.1746 47.9957 72.5867 51.0725 72.0379 54.2082C71.5284 57.3438 71.1168 60.303 70.8033 63.0859C70.4897 65.8296 70.3329 68.1421 70.3329 70.0235C70.3329 70.8858 70.3721 71.5521 70.4505 72.0224C70.5289 72.4928 70.6269 72.9043 70.7445 73.2571C70.9013 73.649 71.0581 74.1782 71.2148 74.8445C69.8822 74.8445 68.8631 74.6289 68.1576 74.1978C67.4521 73.7666 66.9817 73.0611 66.7466 72.0812C66.5114 71.1405 66.3938 69.8667 66.3938 68.2597C66.3938 63.5954 66.9817 58.598 68.1576 53.2675C69.3727 47.8977 70.7445 42.332 72.2731 36.5703C71.1364 38.0205 69.941 39.8627 68.6867 42.0968C67.4717 44.2917 66.237 46.6827 64.9828 49.2695C63.7677 51.8172 62.5919 54.3845 61.4552 56.9714C60.3577 59.5191 59.3779 61.8904 58.5156 64.0854C57.6533 66.2803 56.9869 68.1029 56.5166 69.5531C56.2814 69.6315 56.1247 69.6903 56.0463 69.7295C55.9679 69.7687 55.8307 69.7883 55.6347 69.7883C54.5764 69.7883 53.8709 69.1612 53.5182 67.9069C53.2046 66.6527 53.0478 64.8889 53.0478 62.6155C53.0478 61.0085 53.087 59.1076 53.1654 56.9126C53.283 54.6785 53.4006 52.3856 53.5182 50.0339C53.6357 47.6821 53.7337 45.4284 53.8121 43.2727C53.9297 41.0777 53.9885 39.1964 53.9885 37.6285C53.9885 36.8446 53.9689 36.1979 53.9297 35.6884C53.9297 35.1788 53.9101 34.7281 53.8709 34.3361C50.7353 41.6265 48.1092 47.8585 45.9927 53.0323C43.8761 58.1669 42.0927 62.3412 40.6425 65.5552C39.2315 68.7692 37.9772 71.1209 36.8798 72.6103C35.7823 74.0998 34.7044 74.8445 33.6461 74.8445ZM84.2287 72.3164C81.8378 72.3164 80.0348 71.6501 78.8198 70.3174C77.6439 69.024 77.056 67.417 77.056 65.4964C77.056 63.7326 77.4872 61.8708 78.3494 59.9111C79.2509 57.9513 80.4268 56.1091 81.877 54.3845C83.3664 52.6599 84.9931 51.2685 86.7568 50.2102C88.5206 49.1128 90.2648 48.564 91.9894 48.564C92.8909 48.564 93.714 48.7992 94.4587 49.2695C95.2426 49.7399 95.6346 50.7002 95.6346 52.1504C95.6346 53.6398 95.1838 55.0509 94.2823 56.3835C93.42 57.6769 92.2638 58.8332 90.8136 59.8523C89.4025 60.8714 87.8347 61.7141 86.1101 62.3804C84.4247 63.0075 82.7393 63.3995 81.0539 63.5562C80.9755 63.9482 80.9167 64.3205 80.8775 64.6733C80.8383 65.0261 80.8188 65.3592 80.8188 65.6728C80.8188 66.2607 80.8775 66.8486 80.9951 67.4366C81.1519 68.0245 81.4067 68.5732 81.7594 69.0828C82.1122 69.5531 82.5825 69.9255 83.1705 70.1998C83.7976 70.4742 84.5619 70.6114 85.4634 70.6114C87.1488 70.6114 88.8146 70.141 90.4608 69.2004C92.107 68.2205 93.6356 66.9466 95.0466 65.3788C96.4577 63.811 97.6531 62.0864 98.633 60.205L99.3385 60.7342C98.2803 63.0859 96.928 65.124 95.2818 66.8486C93.6748 68.5732 91.911 69.9059 89.9904 70.8466C88.1091 71.8264 86.1885 72.3164 84.2287 72.3164ZM81.3479 62.4392C82.4062 62.0864 83.6016 61.5769 84.9343 60.9106C86.2669 60.205 87.5407 59.3819 88.7558 58.4412C90.01 57.5006 91.0291 56.4619 91.813 55.3252C92.6361 54.1886 93.0477 52.9931 93.0477 51.7389C93.0477 51.3077 92.9693 50.9745 92.8125 50.7394C92.6557 50.5042 92.3226 50.3866 91.813 50.3866C90.8723 50.3866 89.8729 50.759 88.8146 51.5037C87.7563 52.2092 86.7372 53.1499 85.7574 54.3257C84.7775 55.5016 83.8956 56.795 83.1117 58.2061C82.3278 59.6171 81.7398 61.0281 81.3479 62.4392ZM107.629 71.2581C106.296 71.2581 105.238 70.9054 104.454 70.1998C103.709 69.4943 103.337 68.5732 103.337 67.4366C103.337 66.2607 103.611 65.0261 104.16 63.7326C104.709 62.4392 105.238 61.1653 105.747 59.9111C106.296 58.6176 106.571 57.4614 106.571 56.4423C106.571 55.188 106.198 54.2669 105.453 53.679C104.748 53.0519 104.023 52.4836 103.278 51.974C102.377 54.2865 101.436 56.4815 100.456 58.5588C99.4762 60.6362 98.6727 62.204 98.0455 63.2623L97.5164 62.2628C98.0651 61.2437 98.7707 59.7543 99.6329 57.7945C100.534 55.8348 101.416 53.6006 102.279 51.0921C101.887 50.7002 101.691 50.2298 101.691 49.6811C101.691 48.5052 102.024 47.545 102.69 46.8002C103.357 46.0555 103.846 45.6832 104.16 45.6832C104.591 45.6832 104.826 45.8792 104.866 46.2711C104.944 46.6239 104.983 46.8982 104.983 47.0942C104.983 47.2902 104.866 47.6821 104.63 48.2701C104.434 48.8188 104.336 49.152 104.336 49.2695C104.336 49.8183 104.63 50.3278 105.218 50.7982C105.845 51.2293 106.551 51.7389 107.335 52.3268C108.119 52.8755 108.805 53.5614 109.393 54.3845C110.02 55.1684 110.333 56.1875 110.333 57.4418C110.333 58.6176 110.078 59.8131 109.569 61.0281C109.099 62.2432 108.609 63.3995 108.099 64.4969C107.629 65.5944 107.394 66.5547 107.394 67.3778C107.394 68.0833 107.57 68.5536 107.923 68.7888C108.276 69.024 108.687 69.1416 109.157 69.1416C110.098 69.1416 111.058 68.8476 112.038 68.2597C113.057 67.6717 114.037 66.927 114.978 66.0255C115.919 65.124 116.761 64.1834 117.506 63.2035C118.251 62.1844 118.799 61.2437 119.152 60.3814L119.917 60.9693C119.172 62.6155 118.153 64.2422 116.859 65.8492C115.566 67.417 114.116 68.7104 112.509 69.7295C110.941 70.7486 109.314 71.2581 107.629 71.2581ZM124.188 73.0219C122.307 73.0219 120.739 72.3948 119.485 71.1405C118.23 69.8863 117.603 68.0049 117.603 65.4964C117.603 63.5366 117.976 61.6357 118.72 59.7935C119.504 57.9121 120.523 56.2267 121.778 54.7373C123.032 53.2479 124.423 52.072 125.952 51.2097C127.481 50.3082 128.99 49.8575 130.479 49.8575C132.086 49.8575 133.184 50.3278 133.771 51.2685C134.359 52.2092 134.653 53.1891 134.653 54.2082C134.653 55.3448 134.379 56.3443 133.83 57.2066C133.321 58.0689 132.615 58.5 131.714 58.5C131.047 58.5 130.479 58.2061 130.009 57.6181C130.597 57.3046 131.106 56.6775 131.537 55.7368C131.968 54.7569 132.184 53.8358 132.184 52.9735C132.184 52.5032 132.086 52.1504 131.89 51.9152C131.733 51.6409 131.4 51.5037 130.891 51.5037C129.832 51.5037 128.735 51.974 127.598 52.9147C126.501 53.8554 125.462 55.0705 124.482 56.5599C123.541 58.0493 122.758 59.6171 122.13 61.2633C121.543 62.9095 121.249 64.4577 121.249 65.908C121.249 67.123 121.543 68.2401 122.13 69.2591C122.718 70.2782 123.855 70.7878 125.54 70.7878C127.108 70.7878 128.676 70.3566 130.244 69.4943C131.851 68.632 133.34 67.3974 134.712 65.7904C136.084 64.1834 137.181 62.302 138.005 60.1462L138.769 60.7342C137.867 63.0859 136.633 65.2024 135.065 67.0838C133.497 68.926 131.772 70.3762 129.891 71.4345C128.01 72.4928 126.109 73.0219 124.188 73.0219ZM141.135 71.2581C139.606 71.2581 138.47 70.7682 137.725 69.7883C136.98 68.8476 136.608 67.6913 136.608 66.3195C136.608 65.418 136.765 64.2813 137.078 62.9095C137.431 61.5377 137.882 60.107 138.43 58.6176C138.979 57.089 139.606 55.6584 140.312 54.3257C141.056 52.9931 141.84 51.9152 142.663 51.0921C143.487 50.2298 144.29 49.7987 145.074 49.7987C145.427 49.7987 145.721 49.9163 145.956 50.1514C146.23 50.3474 146.367 50.661 146.367 51.0921C146.367 51.5625 146.054 52.3268 145.427 53.3851C144.839 54.4433 144.133 55.6584 143.31 57.0302C142.487 58.4021 141.762 59.8523 141.135 61.3809C140.547 62.8703 140.253 64.3009 140.253 65.6728C140.253 67.0838 140.488 68.0245 140.958 68.4948C141.429 68.9652 142.154 69.2004 143.134 69.2004C144.466 69.2004 145.877 68.534 147.367 67.2014C148.895 65.8688 150.502 63.5366 152.188 60.205L152.717 60.793C151.58 64.1638 149.934 66.7507 147.778 68.5536C145.662 70.3566 143.447 71.2581 141.135 71.2581ZM148.19 44.3309C147.563 44.3309 146.994 44.1742 146.485 43.8606C146.015 43.547 145.779 43.0571 145.779 42.3908C145.779 41.5677 146.25 40.8622 147.19 40.2742C148.17 39.6471 149.131 39.3335 150.071 39.3335C150.659 39.3335 151.13 39.4707 151.482 39.7451C151.835 40.0195 152.011 40.4898 152.011 41.1561C152.011 41.9008 151.6 42.6259 150.777 43.3315C149.993 43.9978 149.131 44.3309 148.19 44.3309ZM153.905 72.4928C152.69 72.4928 151.671 72.0812 150.848 71.2581C149.986 70.4742 149.555 69.2591 149.555 67.6129C149.555 66.2019 149.868 64.6929 150.495 63.0859C151.122 61.4397 151.985 59.8327 153.082 58.2649C154.18 56.6579 155.414 55.2076 156.786 53.9142C158.197 52.5816 159.667 51.5233 161.196 50.7394C162.763 49.9555 164.312 49.5635 165.84 49.5635C167.369 49.5635 168.643 49.9751 169.662 50.7982C170.681 51.5821 171.19 52.6403 171.19 53.973C171.19 54.9529 170.916 55.6192 170.367 55.9719C169.858 56.3247 169.172 56.5011 168.31 56.5011C168.388 56.1875 168.447 55.8544 168.486 55.5016C168.564 55.1096 168.603 54.7569 168.603 54.4433C168.603 53.5418 168.388 52.7775 167.957 52.1504C167.526 51.4841 166.781 51.1509 165.723 51.1509C164.625 51.1509 163.508 51.5429 162.371 52.3268C161.235 53.0715 160.137 54.0906 159.079 55.384C158.021 56.6383 157.08 58.0101 156.257 59.4995C155.434 60.9889 154.787 62.4588 154.317 63.909C153.846 65.3592 153.611 66.6527 153.611 67.7893C153.611 69.3179 154.14 70.0822 155.199 70.0822C156.1 70.0822 157.08 69.6707 158.138 68.8476C159.197 67.9853 160.274 66.9074 161.372 65.614C162.509 64.2813 163.586 62.9095 164.606 61.4985C165.625 60.0875 166.526 58.794 167.31 57.6181C167.467 57.383 167.565 57.2654 167.604 57.2654C167.839 57.3046 168.133 57.383 168.486 57.5006C168.878 57.6181 169.211 57.7749 169.485 57.9709C169.76 58.1669 169.897 58.4217 169.897 58.7352C169.897 59.088 169.721 59.5779 169.368 60.205C169.015 60.793 168.623 61.4789 168.192 62.2628C167.761 63.0467 167.369 63.8502 167.016 64.6733C166.663 65.4572 166.487 66.2019 166.487 66.9074C166.487 67.4954 166.644 68.0833 166.957 68.6712C167.271 69.22 167.78 69.4943 168.486 69.4943C169.544 69.4943 170.936 68.73 172.66 67.2014C174.385 65.6336 176.129 63.3015 177.893 60.205L178.481 60.793C177.658 62.9095 176.599 64.7713 175.306 66.3783C174.012 67.9853 172.621 69.2396 171.132 70.141C169.681 71.0425 168.251 71.4933 166.84 71.4933C165.389 71.4933 164.312 71.0621 163.606 70.1998C162.94 69.3375 162.607 68.3969 162.607 67.3778C162.607 67.1426 162.626 66.8878 162.665 66.6135C162.705 66.2999 162.744 65.9863 162.783 65.6728C161.098 67.9461 159.549 69.6511 158.138 70.7878C156.767 71.9244 155.355 72.4928 153.905 72.4928Z" fill="#FDFDFD"/>
<path d="M38.4444 87.1816C39.4264 87.1816 40.2749 87.3668 40.9898 87.7372C41.7134 88.099 42.2647 88.6201 42.6437 89.3006C43.0313 89.9811 43.2252 90.7822 43.2252 91.7039C43.2252 92.6256 43.0313 93.4267 42.6437 94.1072C42.2647 94.7791 41.7134 95.296 40.9898 95.6577C40.2749 96.0109 39.4264 96.1875 38.4444 96.1875H35.6405V87.1816H38.4444ZM38.4444 95.2184C39.6073 95.2184 40.4945 94.9126 41.1061 94.301C41.7177 93.6808 42.0235 92.8151 42.0235 91.7039C42.0235 90.5841 41.7134 89.7098 41.0932 89.081C40.4816 88.4521 39.5987 88.1377 38.4444 88.1377H36.8164V95.2184H38.4444ZM51.2366 92.3758C51.2366 92.5998 51.2236 92.8367 51.1978 93.0865H45.5384C45.5815 93.7842 45.8184 94.3312 46.2491 94.7274C46.6884 95.1151 47.2181 95.3089 47.8383 95.3089C48.3466 95.3089 48.7687 95.1926 49.1046 94.96C49.4492 94.7188 49.6903 94.4001 49.8282 94.0039H51.0944C50.9049 94.6844 50.5259 95.24 49.9574 95.6707C49.3889 96.0927 48.6825 96.3038 47.8383 96.3038C47.1665 96.3038 46.5635 96.153 46.0294 95.8516C45.504 95.5501 45.0905 95.1237 44.789 94.5724C44.4875 94.0125 44.3368 93.3664 44.3368 92.6342C44.3368 91.902 44.4832 91.2603 44.7761 90.709C45.0689 90.1577 45.4781 89.7356 46.0036 89.4428C46.5376 89.1413 47.1492 88.9905 47.8383 88.9905C48.5102 88.9905 49.1046 89.137 49.6214 89.4298C50.1383 89.7227 50.5345 90.1276 50.8102 90.6444C51.0944 91.1526 51.2366 91.7298 51.2366 92.3758ZM50.022 92.1303C50.022 91.6824 49.9229 91.2991 49.7248 90.9803C49.5267 90.653 49.2553 90.4075 48.9108 90.2439C48.5748 90.0716 48.2001 89.9854 47.7867 89.9854C47.1923 89.9854 46.6841 90.1749 46.262 90.554C45.8485 90.933 45.6116 91.4584 45.5513 92.1303H50.022ZM52.3493 92.6342C52.3493 91.902 52.4957 91.2646 52.7886 90.7219C53.0815 90.1706 53.4863 89.7442 54.0032 89.4428C54.5286 89.1413 55.1273 88.9905 55.7992 88.9905C56.6692 88.9905 57.3841 89.2016 57.9441 89.6236C58.5126 90.0457 58.8873 90.6315 59.0682 91.3809H57.8019C57.6813 90.9502 57.4444 90.6099 57.0913 90.3601C56.7467 90.1103 56.316 89.9854 55.7992 89.9854C55.1273 89.9854 54.5846 90.218 54.1711 90.6832C53.7577 91.1397 53.5509 91.7901 53.5509 92.6342C53.5509 93.487 53.7577 94.146 54.1711 94.6111C54.5846 95.0763 55.1273 95.3089 55.7992 95.3089C56.316 95.3089 56.7467 95.1883 57.0913 94.9471C57.4358 94.7059 57.6727 94.3613 57.8019 93.9134H59.0682C58.8787 94.637 58.4997 95.2184 57.9311 95.6577C57.3626 96.0884 56.652 96.3038 55.7992 96.3038C55.1273 96.3038 54.5286 96.153 54.0032 95.8516C53.4863 95.5501 53.0815 95.1237 52.7886 94.5724C52.4957 94.0211 52.3493 93.375 52.3493 92.6342ZM63.7252 96.3038C63.0619 96.3038 62.4589 96.153 61.9162 95.8516C61.3822 95.5501 60.9601 95.1237 60.65 94.5724C60.3485 94.0125 60.1978 93.3664 60.1978 92.6342C60.1978 91.9107 60.3528 91.2732 60.6629 90.7219C60.9816 90.162 61.4123 89.7356 61.955 89.4428C62.4977 89.1413 63.105 88.9905 63.7769 88.9905C64.4488 88.9905 65.056 89.1413 65.5987 89.4428C66.1414 89.7356 66.5678 90.1577 66.8779 90.709C67.1966 91.2603 67.356 91.902 67.356 92.6342C67.356 93.3664 67.1923 94.0125 66.865 94.5724C66.5463 95.1237 66.1113 95.5501 65.56 95.8516C65.0087 96.153 64.3971 96.3038 63.7252 96.3038ZM63.7252 95.2701C64.1473 95.2701 64.5435 95.1711 64.9139 94.9729C65.2843 94.7748 65.5815 94.4776 65.8055 94.0814C66.038 93.6851 66.1543 93.2028 66.1543 92.6342C66.1543 92.0657 66.0423 91.5833 65.8184 91.1871C65.5944 90.7908 65.3015 90.498 64.9398 90.3085C64.578 90.1103 64.186 90.0113 63.7639 90.0113C63.3332 90.0113 62.937 90.1103 62.5752 90.3085C62.222 90.498 61.9378 90.7908 61.7224 91.1871C61.5071 91.5833 61.3994 92.0657 61.3994 92.6342C61.3994 93.2114 61.5028 93.6981 61.7095 94.0943C61.9249 94.4905 62.2091 94.7877 62.5623 94.9858C62.9155 95.1754 63.3031 95.2701 63.7252 95.2701ZM70.0778 90.2568C70.2845 89.8519 70.5774 89.5375 70.9564 89.3135C71.344 89.0896 71.8135 88.9776 72.3648 88.9776V90.1922H72.0547C70.7367 90.1922 70.0778 90.9071 70.0778 92.3371V96.1875H68.9019V89.1068H70.0778V90.2568ZM73.2828 92.6213C73.2828 91.8977 73.4292 91.2646 73.7221 90.7219C74.015 90.1706 74.4155 89.7442 74.9237 89.4428C75.4406 89.1413 76.0134 88.9905 76.6422 88.9905C77.2624 88.9905 77.8008 89.124 78.2573 89.3911C78.7139 89.6581 79.0541 89.994 79.2781 90.3989V89.1068H80.4668V96.1875H79.2781V94.8696C79.0455 95.283 78.6966 95.6276 78.2315 95.9032C77.775 96.1703 77.2409 96.3038 76.6293 96.3038C76.0005 96.3038 75.432 96.1487 74.9237 95.8386C74.4155 95.5285 74.015 95.0935 73.7221 94.5336C73.4292 93.9737 73.2828 93.3363 73.2828 92.6213ZM79.2781 92.6342C79.2781 92.1002 79.1704 91.635 78.9551 91.2388C78.7397 90.8425 78.4468 90.541 78.0764 90.3343C77.7147 90.119 77.3141 90.0113 76.8748 90.0113C76.4355 90.0113 76.0349 90.1146 75.6731 90.3214C75.3114 90.5281 75.0228 90.8296 74.8074 91.2258C74.5921 91.6221 74.4844 92.0872 74.4844 92.6213C74.4844 93.164 74.5921 93.6378 74.8074 94.0426C75.0228 94.4389 75.3114 94.7447 75.6731 94.96C76.0349 95.1667 76.4355 95.2701 76.8748 95.2701C77.3141 95.2701 77.7147 95.1667 78.0764 94.96C78.4468 94.7447 78.7397 94.4389 78.9551 94.0426C79.1704 93.6378 79.2781 93.1683 79.2781 92.6342ZM85.4644 95.3089C85.9813 95.3089 86.412 95.1883 86.7565 94.9471C87.1011 94.7059 87.338 94.3613 87.4672 93.9134H88.7334C88.5611 94.5853 88.2209 95.1366 87.7127 95.5673C87.2131 95.9894 86.5842 96.2306 85.8262 96.2909V96.9369C86.3344 96.9283 86.7393 97.036 87.0408 97.2599C87.3423 97.4839 87.493 97.8026 87.493 98.2161C87.493 98.6209 87.3466 98.944 87.0537 99.1852C86.7608 99.4264 86.3818 99.547 85.9166 99.547H84.4307V98.7846H85.6841C85.9683 98.7846 86.1751 98.7415 86.3043 98.6554C86.4421 98.5693 86.511 98.4228 86.511 98.2161C86.511 98.018 86.4421 97.8758 86.3043 97.7897C86.1751 97.7036 85.9683 97.6605 85.6841 97.6605H85.038V96.2779C84.4437 96.2176 83.9182 96.0324 83.4617 95.7223C83.0051 95.4036 82.6476 94.9815 82.3892 94.4561C82.1394 93.922 82.0145 93.3147 82.0145 92.6342C82.0145 91.902 82.161 91.2646 82.4538 90.7219C82.7467 90.1706 83.1516 89.7442 83.6684 89.4428C84.1939 89.1413 84.7925 88.9905 85.4644 88.9905C86.3344 88.9905 87.0494 89.2016 87.6093 89.6236C88.1778 90.0457 88.5525 90.6315 88.7334 91.3809H87.4672C87.3466 90.9502 87.1097 90.6099 86.7565 90.3601C86.412 90.1103 85.9813 89.9854 85.4644 89.9854C84.7925 89.9854 84.2498 90.218 83.8364 90.6832C83.4229 91.1397 83.2162 91.7901 83.2162 92.6342C83.2162 93.487 83.4229 94.146 83.8364 94.6111C84.2498 95.0763 84.7925 95.3089 85.4644 95.3089ZM89.863 92.6213C89.863 91.8977 90.0094 91.2646 90.3023 90.7219C90.5952 90.1706 90.9957 89.7442 91.504 89.4428C92.0208 89.1413 92.5936 88.9905 93.2224 88.9905C93.8426 88.9905 94.381 89.124 94.8376 89.3911C95.2941 89.6581 95.6344 89.994 95.8583 90.3989V89.1068H97.047V96.1875H95.8583V94.8696C95.6257 95.283 95.2769 95.6276 94.8117 95.9032C94.3552 96.1703 93.8211 96.3038 93.2095 96.3038C92.5807 96.3038 92.0122 96.1487 91.504 95.8386C90.9957 95.5285 90.5952 95.0935 90.3023 94.5336C90.0094 93.9737 89.863 93.3363 89.863 92.6213ZM95.8583 92.6342C95.8583 92.1002 95.7506 91.635 95.5353 91.2388C95.3199 90.8425 95.0271 90.541 94.6567 90.3343C94.2949 90.119 93.8943 90.0113 93.455 90.0113C93.0157 90.0113 92.6152 90.1146 92.2534 90.3214C91.8916 90.5281 91.603 90.8296 91.3877 91.2258C91.1723 91.6221 91.0646 92.0872 91.0646 92.6213C91.0646 93.164 91.1723 93.6378 91.3877 94.0426C91.603 94.4389 91.8916 94.7447 92.2534 94.96C92.6152 95.1667 93.0157 95.2701 93.455 95.2701C93.8943 95.2701 94.2949 95.1667 94.6567 94.96C95.0271 94.7447 95.3199 94.4389 95.5353 94.0426C95.7506 93.6378 95.8583 93.1683 95.8583 92.6342ZM91.7882 88.3445C91.8485 87.9052 91.9906 87.5692 92.2146 87.3366C92.4472 87.1041 92.7358 86.9878 93.0803 86.9878C93.244 86.9878 93.3818 87.0179 93.4938 87.0782C93.6144 87.1299 93.7565 87.2074 93.9202 87.3108C94.0408 87.3969 94.1484 87.4658 94.2432 87.5175C94.338 87.5606 94.4413 87.5821 94.5533 87.5821C94.6997 87.5821 94.8246 87.5348 94.928 87.44C95.0314 87.3452 95.096 87.2074 95.1218 87.0265H95.7937C95.742 87.4572 95.5999 87.7889 95.3673 88.0214C95.1347 88.254 94.8462 88.3703 94.5016 88.3703C94.338 88.3703 94.1915 88.3445 94.0623 88.2928C93.9417 88.2325 93.8039 88.1463 93.6488 88.0344C93.511 87.9482 93.399 87.8836 93.3129 87.8406C93.2354 87.7975 93.1406 87.7759 93.0286 87.7759C92.8822 87.7759 92.7573 87.8233 92.6539 87.9181C92.5592 88.0128 92.4989 88.155 92.473 88.3445H91.7882ZM102.122 96.3038C101.459 96.3038 100.856 96.153 100.313 95.8516C99.7792 95.5501 99.3571 95.1237 99.047 94.5724C98.7455 94.0125 98.5947 93.3664 98.5947 92.6342C98.5947 91.9107 98.7498 91.2732 99.0599 90.7219C99.3786 90.162 99.8093 89.7356 100.352 89.4428C100.895 89.1413 101.502 88.9905 102.174 88.9905C102.846 88.9905 103.453 89.1413 103.996 89.4428C104.538 89.7356 104.965 90.1577 105.275 90.709C105.594 91.2603 105.753 91.902 105.753 92.6342C105.753 93.3664 105.589 94.0125 105.262 94.5724C104.943 95.1237 104.508 95.5501 103.957 95.8516C103.406 96.153 102.794 96.3038 102.122 96.3038ZM102.122 95.2701C102.544 95.2701 102.94 95.1711 103.311 94.9729C103.681 94.7748 103.978 94.4776 104.202 94.0814C104.435 93.6851 104.551 93.2028 104.551 92.6342C104.551 92.0657 104.439 91.5833 104.215 91.1871C103.991 90.7908 103.699 90.498 103.337 90.3085C102.975 90.1103 102.583 90.0113 102.161 90.0113C101.73 90.0113 101.334 90.1103 100.972 90.3085C100.619 90.498 100.335 90.7908 100.119 91.1871C99.9041 91.5833 99.7964 92.0657 99.7964 92.6342C99.7964 93.2114 99.8998 93.6981 100.106 94.0943C100.322 94.4905 100.606 94.7877 100.959 94.9858C101.312 95.1754 101.7 95.2701 102.122 95.2701ZM117.204 92.3758C117.204 92.5998 117.191 92.8367 117.165 93.0865H111.506C111.549 93.7842 111.786 94.3312 112.217 94.7274C112.656 95.1151 113.186 95.3089 113.806 95.3089C114.314 95.3089 114.736 95.1926 115.072 94.96C115.417 94.7188 115.658 94.4001 115.796 94.0039H117.062C116.873 94.6844 116.494 95.24 115.925 95.6707C115.356 96.0927 114.65 96.3038 113.806 96.3038C113.134 96.3038 112.531 96.153 111.997 95.8516C111.472 95.5501 111.058 95.1237 110.757 94.5724C110.455 94.0125 110.304 93.3664 110.304 92.6342C110.304 91.902 110.451 91.2603 110.744 90.709C111.037 90.1577 111.446 89.7356 111.971 89.4428C112.505 89.1413 113.117 88.9905 113.806 88.9905C114.478 88.9905 115.072 89.137 115.589 89.4298C116.106 89.7227 116.502 90.1276 116.778 90.6444C117.062 91.1526 117.204 91.7298 117.204 92.3758ZM115.99 92.1303C115.99 91.6824 115.891 91.2991 115.692 90.9803C115.494 90.653 115.223 90.4075 114.878 90.2439C114.542 90.0716 114.168 89.9854 113.754 89.9854C113.16 89.9854 112.652 90.1749 112.23 90.554C111.816 90.933 111.579 91.4584 111.519 92.1303H115.99ZM123.377 95.2313H126.529V96.1875H122.201V87.1816H123.377V95.2313ZM130.866 96.3038C130.203 96.3038 129.6 96.153 129.057 95.8516C128.523 95.5501 128.101 95.1237 127.791 94.5724C127.49 94.0125 127.339 93.3664 127.339 92.6342C127.339 91.9107 127.494 91.2732 127.804 90.7219C128.123 90.162 128.553 89.7356 129.096 89.4428C129.639 89.1413 130.246 88.9905 130.918 88.9905C131.59 88.9905 132.197 89.1413 132.74 89.4428C133.282 89.7356 133.709 90.1577 134.019 90.709C134.338 91.2603 134.497 91.902 134.497 92.6342C134.497 93.3664 134.333 94.0125 134.006 94.5724C133.687 95.1237 133.252 95.5501 132.701 95.8516C132.15 96.153 131.538 96.3038 130.866 96.3038ZM130.866 95.2701C131.288 95.2701 131.685 95.1711 132.055 94.9729C132.425 94.7748 132.723 94.4776 132.947 94.0814C133.179 93.6851 133.295 93.2028 133.295 92.6342C133.295 92.0657 133.183 91.5833 132.959 91.1871C132.736 90.7908 132.443 90.498 132.081 90.3085C131.719 90.1103 131.327 90.0113 130.905 90.0113C130.474 90.0113 130.078 90.1103 129.716 90.3085C129.363 90.498 129.079 90.7908 128.864 91.1871C128.648 91.5833 128.541 92.0657 128.541 92.6342C128.541 93.2114 128.644 93.6981 128.851 94.0943C129.066 94.4905 129.35 94.7877 129.703 94.9858C130.057 95.1754 130.444 95.2701 130.866 95.2701ZM135.604 92.6342C135.604 91.902 135.75 91.2646 136.043 90.7219C136.336 90.1706 136.741 89.7442 137.258 89.4428C137.783 89.1413 138.382 88.9905 139.054 88.9905C139.924 88.9905 140.639 89.2016 141.199 89.6236C141.767 90.0457 142.142 90.6315 142.323 91.3809H141.056C140.936 90.9502 140.699 90.6099 140.346 90.3601C140.001 90.1103 139.57 89.9854 139.054 89.9854C138.382 89.9854 137.839 90.218 137.426 90.6832C137.012 91.1397 136.805 91.7901 136.805 92.6342C136.805 93.487 137.012 94.146 137.426 94.6111C137.839 95.0763 138.382 95.3089 139.054 95.3089C139.57 95.3089 140.001 95.1883 140.346 94.9471C140.69 94.7059 140.927 94.3613 141.056 93.9134H142.323C142.133 94.637 141.754 95.2184 141.186 95.6577C140.617 96.0884 139.906 96.3038 139.054 96.3038C138.382 96.3038 137.783 96.153 137.258 95.8516C136.741 95.5501 136.336 95.1237 136.043 94.5724C135.75 94.0211 135.604 93.375 135.604 92.6342ZM143.452 92.6213C143.452 91.8977 143.599 91.2646 143.892 90.7219C144.184 90.1706 144.585 89.7442 145.093 89.4428C145.61 89.1413 146.183 88.9905 146.812 88.9905C147.432 88.9905 147.97 89.124 148.427 89.3911C148.883 89.6581 149.224 89.994 149.448 90.3989V89.1068H150.636V96.1875H149.448V94.8696C149.215 95.283 148.866 95.6276 148.401 95.9032C147.944 96.1703 147.41 96.3038 146.799 96.3038C146.17 96.3038 145.601 96.1487 145.093 95.8386C144.585 95.5285 144.184 95.0935 143.892 94.5336C143.599 93.9737 143.452 93.3363 143.452 92.6213ZM149.448 92.6342C149.448 92.1002 149.34 91.635 149.125 91.2388C148.909 90.8425 148.616 90.541 148.246 90.3343C147.884 90.119 147.484 90.0113 147.044 90.0113C146.605 90.0113 146.204 90.1146 145.843 90.3214C145.481 90.5281 145.192 90.8296 144.977 91.2258C144.762 91.6221 144.654 92.0872 144.654 92.6213C144.654 93.164 144.762 93.6378 144.977 94.0426C145.192 94.4389 145.481 94.7447 145.843 94.96C146.204 95.1667 146.605 95.2701 147.044 95.2701C147.484 95.2701 147.884 95.1667 148.246 94.96C148.616 94.7447 148.909 94.4389 149.125 94.0426C149.34 93.6378 149.448 93.1683 149.448 92.6342ZM155.634 95.3089C156.151 95.3089 156.581 95.1883 156.926 94.9471C157.271 94.7059 157.507 94.3613 157.637 93.9134H158.903C158.731 94.5853 158.39 95.1366 157.882 95.5673C157.382 95.9894 156.754 96.2306 155.996 96.2909V96.9369C156.504 96.9283 156.909 97.036 157.21 97.2599C157.512 97.4839 157.662 97.8026 157.662 98.2161C157.662 98.6209 157.516 98.944 157.223 99.1852C156.93 99.4264 156.551 99.547 156.086 99.547H154.6V98.7846H155.854C156.138 98.7846 156.345 98.7415 156.474 98.6554C156.612 98.5693 156.68 98.4228 156.68 98.2161C156.68 98.018 156.612 97.8758 156.474 97.7897C156.345 97.7036 156.138 97.6605 155.854 97.6605H155.207V96.2779C154.613 96.2176 154.088 96.0324 153.631 95.7223C153.175 95.4036 152.817 94.9815 152.559 94.4561C152.309 93.922 152.184 93.3147 152.184 92.6342C152.184 91.902 152.33 91.2646 152.623 90.7219C152.916 90.1706 153.321 89.7442 153.838 89.4428C154.363 89.1413 154.962 88.9905 155.634 88.9905C156.504 88.9905 157.219 89.2016 157.779 89.6236C158.347 90.0457 158.722 90.6315 158.903 91.3809H157.637C157.516 90.9502 157.279 90.6099 156.926 90.3601C156.581 90.1103 156.151 89.9854 155.634 89.9854C154.962 89.9854 154.419 90.218 154.006 90.6832C153.592 91.1397 153.386 91.7901 153.386 92.6342C153.386 93.487 153.592 94.146 154.006 94.6111C154.419 95.0763 154.962 95.3089 155.634 95.3089ZM160.032 92.6213C160.032 91.8977 160.179 91.2646 160.472 90.7219C160.765 90.1706 161.165 89.7442 161.673 89.4428C162.19 89.1413 162.763 88.9905 163.392 88.9905C164.012 88.9905 164.55 89.124 165.007 89.3911C165.464 89.6581 165.804 89.994 166.028 90.3989V89.1068H167.216V96.1875H166.028V94.8696C165.795 95.283 165.446 95.6276 164.981 95.9032C164.525 96.1703 163.991 96.3038 163.379 96.3038C162.75 96.3038 162.182 96.1487 161.673 95.8386C161.165 95.5285 160.765 95.0935 160.472 94.5336C160.179 93.9737 160.032 93.3363 160.032 92.6213ZM166.028 92.6342C166.028 92.1002 165.92 91.635 165.705 91.2388C165.489 90.8425 165.197 90.541 164.826 90.3343C164.464 90.119 164.064 90.0113 163.624 90.0113C163.185 90.0113 162.785 90.1146 162.423 90.3214C162.061 90.5281 161.772 90.8296 161.557 91.2258C161.342 91.6221 161.234 92.0872 161.234 92.6213C161.234 93.164 161.342 93.6378 161.557 94.0426C161.772 94.4389 162.061 94.7447 162.423 94.96C162.785 95.1667 163.185 95.2701 163.624 95.2701C164.064 95.2701 164.464 95.1667 164.826 94.96C165.197 94.7447 165.489 94.4389 165.705 94.0426C165.92 93.6378 166.028 93.1683 166.028 92.6342ZM161.958 88.3445C162.018 87.9052 162.16 87.5692 162.384 87.3366C162.617 87.1041 162.905 86.9878 163.25 86.9878C163.413 86.9878 163.551 87.0179 163.663 87.0782C163.784 87.1299 163.926 87.2074 164.09 87.3108C164.21 87.3969 164.318 87.4658 164.413 87.5175C164.507 87.5606 164.611 87.5821 164.723 87.5821C164.869 87.5821 164.994 87.5348 165.097 87.44C165.201 87.3452 165.265 87.2074 165.291 87.0265H165.963C165.911 87.4572 165.769 87.7889 165.537 88.0214C165.304 88.254 165.016 88.3703 164.671 88.3703C164.507 88.3703 164.361 88.3445 164.232 88.2928C164.111 88.2325 163.973 88.1463 163.818 88.0344C163.68 87.9482 163.568 87.8836 163.482 87.8406C163.405 87.7975 163.31 87.7759 163.198 87.7759C163.052 87.7759 162.927 87.8233 162.823 87.9181C162.729 88.0128 162.668 88.155 162.642 88.3445H161.958ZM172.292 96.3038C171.628 96.3038 171.025 96.153 170.483 95.8516C169.949 95.5501 169.527 95.1237 169.216 94.5724C168.915 94.0125 168.764 93.3664 168.764 92.6342C168.764 91.9107 168.919 91.2732 169.229 90.7219C169.548 90.162 169.979 89.7356 170.521 89.4428C171.064 89.1413 171.671 88.9905 172.343 88.9905C173.015 88.9905 173.622 89.1413 174.165 89.4428C174.708 89.7356 175.134 90.1577 175.444 90.709C175.763 91.2603 175.922 91.902 175.922 92.6342C175.922 93.3664 175.759 94.0125 175.431 94.5724C175.113 95.1237 174.678 95.5501 174.126 95.8516C173.575 96.153 172.964 96.3038 172.292 96.3038ZM172.292 95.2701C172.714 95.2701 173.11 95.1711 173.48 94.9729C173.851 94.7748 174.148 94.4776 174.372 94.0814C174.604 93.6851 174.721 93.2028 174.721 92.6342C174.721 92.0657 174.609 91.5833 174.385 91.1871C174.161 90.7908 173.868 90.498 173.506 90.3085C173.144 90.1103 172.752 90.0113 172.33 90.0113C171.9 90.0113 171.503 90.1103 171.142 90.3085C170.788 90.498 170.504 90.7908 170.289 91.1871C170.074 91.5833 169.966 92.0657 169.966 92.6342C169.966 93.2114 170.069 93.6981 170.276 94.0943C170.491 94.4905 170.776 94.7877 171.129 94.9858C171.482 95.1754 171.87 95.2701 172.292 95.2701Z" fill="#FDFDFD"/>
<path d="M77.6347 0.201562C75.9412 0.827532 74.2633 2.97027 73.4865 5.49823C73.036 6.94278 73.0049 7.25576 73.0049 9.59111C73.0204 12.4561 73.3467 14.0211 74.2012 15.273L74.6673 15.9712L74.341 15.1285C73.8283 13.8044 73.3933 11.3727 73.3933 9.73557C73.3933 3.33141 77.0909 -0.761469 81.1924 1.16459C82.6839 1.83871 84.222 3.13881 86.599 5.71491C88.5255 7.80951 91.3841 10.4578 91.4929 10.2652C91.5239 10.2171 90.9491 9.61519 90.2034 8.94107C89.4576 8.26694 88.2924 7.08723 87.6088 6.31681C83.9268 2.19985 82.7616 1.16459 80.8817 0.418243C79.6854 -0.039196 78.5202 -0.1355 77.6347 0.201562Z" fill="#FDFDFD"/>
<path d="M119.877 0.442321C118.448 1.04421 116.723 2.41653 114.952 4.4389C112.979 6.67794 110.882 8.82069 110.012 9.51889C109.592 9.83187 109.297 10.1689 109.344 10.2412C109.468 10.4338 112.373 7.76135 114.502 5.45008C117.951 1.74241 119.862 0.538624 122.068 0.73123C123.062 0.803457 123.528 0.971988 124.196 1.50165C126.278 3.11473 127.459 6.10013 127.459 9.73557C127.459 11.3727 127.024 13.8044 126.511 15.1285L126.185 15.9712L126.651 15.273C127.505 14.0211 127.832 12.4561 127.847 9.59111C127.847 7.30392 127.801 6.9187 127.397 5.57046C126.837 3.69255 125.486 1.62203 124.243 0.779381C123 -0.087347 121.4 -0.207726 119.877 0.442321Z" fill="#FDFDFD"/>
<path d="M95.9204 2.05472C96.1223 2.29548 96.8992 3.28259 97.6293 4.24562C98.3595 5.23272 99.2762 6.29206 99.6956 6.60504L100.426 7.18286L101.172 6.60504C101.576 6.29206 102.492 5.23272 103.222 4.24562C103.953 3.28259 104.729 2.29548 104.931 2.05472C105.304 1.64543 105.304 1.64543 104.776 2.03065C104.481 2.24733 103.642 3.11406 102.912 3.93263C102.181 4.77528 101.327 5.64201 101.016 5.88277C100.457 6.29206 100.395 6.29206 99.851 5.88277C99.5248 5.64201 98.6703 4.77528 97.9401 3.93263C97.2099 3.11406 96.3709 2.24733 96.0757 2.03065C95.5475 1.64543 95.5475 1.64543 95.9204 2.05472Z" fill="#FDFDFD"/>
<path d="M94.4756 7.18334C95.6409 9.83167 97.0857 11.2762 99.1986 11.9503C100.333 12.3115 100.519 12.3115 101.653 11.9503C103.766 11.2762 105.211 9.83167 106.376 7.18334C106.811 6.19623 106.749 6.24438 105.677 7.85746C103.595 10.9392 101.203 11.9744 98.5616 10.9151C97.1168 10.3373 96.4487 9.73537 95.1592 7.80931C94.0872 6.22031 94.0406 6.17215 94.4756 7.18334Z" fill="#FDFDFD"/>
<path d="M77.2304 7.93004C76.8886 8.21895 76.5468 8.74862 76.3914 9.23013C76.1273 10.1209 76.2361 10.6988 76.5468 10.0487C77.0905 8.89307 78.9238 8.43563 79.8715 9.20606C81.2697 10.3135 81.6582 13.2026 80.7415 15.5621C80.524 16.1399 80.5551 16.1399 80.9746 15.4417C81.4873 14.6231 81.7824 13.3471 81.7824 11.9988C81.7669 10.3135 80.8658 8.2671 79.8715 7.68929C79.1724 7.28 77.8829 7.40038 77.2304 7.93004Z" fill="#FDFDFD"/>
<path d="M120.856 7.76151C119.023 9.03753 118.495 13.2026 119.877 15.4417C120.297 16.1399 120.328 16.1399 120.11 15.5621C119.194 13.2026 119.582 10.3135 120.98 9.20606C121.928 8.43563 123.761 8.89307 124.305 10.0487C124.616 10.6988 124.725 10.0969 124.461 9.23013C123.979 7.66521 122.099 6.89478 120.856 7.76151Z" fill="#FDFDFD"/>
<path d="M70.0218 8.38648C68.9032 9.08467 69.3382 12.0701 70.5655 12.0701C71.6997 12.0701 72.259 9.97548 71.4511 8.74761C71.0627 8.12164 70.6121 8.02534 70.0218 8.38648ZM71.3113 9.46989C71.6065 10.144 71.4822 10.9144 71.0316 11.2996C70.5811 11.6608 70.0528 11.3959 69.8353 10.6496C69.4159 9.20505 70.7364 8.12164 71.3113 9.46989Z" fill="#FDFDFD"/>
<path d="M129.432 8.62723C128.546 9.71064 129.106 12.0701 130.286 12.0701C130.892 12.0701 131.498 11.083 131.498 10.0959C131.498 8.50685 130.255 7.61605 129.432 8.62723ZM130.955 9.44581C131.219 10.0718 131.125 10.6496 130.659 11.2515C130.318 11.7089 129.665 11.3719 129.447 10.6737C129.028 9.2532 130.411 8.14572 130.955 9.44581Z" fill="#FDFDFD"/>
<path d="M1.21253 9.71119C0.917342 10.0723 0.917342 10.0723 1.29021 10.5538C1.64754 11.0354 1.81844 11.0354 34.7394 10.9872C70.2394 10.915 68.344 10.9872 67.9401 9.78342C67.8002 9.37413 66.4331 9.35006 34.6617 9.35006C5.43835 9.35006 1.49218 9.39821 1.21253 9.71119Z" fill="#FDFDFD"/>
<path d="M132.912 9.78342C132.508 10.9872 130.613 10.915 166.113 10.9872C199.034 11.0354 199.205 11.0354 199.562 10.5538C199.935 10.0723 199.935 10.0723 199.64 9.71119C199.36 9.39821 195.414 9.35006 166.19 9.35006C134.419 9.35006 133.052 9.37413 132.912 9.78342Z" fill="#FDFDFD"/>
<path d="M87.5931 10.7946C86.1793 11.1317 84.5635 12.5762 84.3771 13.6837C84.3305 13.9485 84.4237 14.406 84.5791 14.719C84.8432 15.2005 84.983 15.2486 86.3191 15.2246C87.5775 15.2005 88.0125 15.056 89.6283 14.1893C91.8344 13.0337 91.5858 12.9374 88.9602 13.9245C86.8784 14.719 85.5889 14.8393 85.1073 14.3097C84.8276 13.9726 84.8276 13.9485 85.2626 13.2263C85.9928 12.0466 87.0959 11.4447 88.7738 11.3243C89.5817 11.2761 90.5605 11.3484 90.9489 11.4928C91.9276 11.8299 91.9121 11.6373 90.9178 11.2039C89.8147 10.7224 88.5563 10.5539 87.5931 10.7946Z" fill="#FDFDFD"/>
<path d="M111.146 10.7946C110.291 10.9872 109.08 11.5169 109.157 11.6373C109.188 11.6854 109.53 11.6132 109.903 11.4928C110.291 11.3484 111.27 11.2761 112.078 11.3243C113.756 11.4447 114.859 12.0466 115.589 13.2263C116.024 13.9485 116.024 13.9726 115.745 14.3097C115.263 14.8393 113.974 14.719 111.892 13.9245C109.266 12.9374 109.018 13.0337 111.224 14.1893C112.839 15.056 113.274 15.2005 114.533 15.2246C115.869 15.2486 116.009 15.2005 116.273 14.719C116.646 13.9967 116.521 13.3466 115.822 12.4558C114.766 11.1076 112.762 10.3853 111.146 10.7946Z" fill="#FDFDFD"/>
<path d="M122.217 125.781C123.911 125.155 125.589 123.012 126.366 120.484C126.816 119.039 126.847 118.726 126.847 116.391C126.832 113.526 126.505 111.961 125.651 110.709L125.185 110.011L125.511 110.854C126.024 112.178 126.459 114.609 126.459 116.247C126.459 122.651 122.761 126.744 118.66 124.818C117.168 124.143 115.63 122.843 113.253 120.267C111.327 118.173 108.468 115.524 108.359 115.717C108.328 115.765 108.903 116.367 109.649 117.041C110.395 117.715 111.56 118.895 112.243 119.665C115.925 123.782 117.091 124.818 118.97 125.564C120.167 126.021 121.332 126.118 122.217 125.781Z" fill="#FDFDFD"/>
<path d="M79.9746 125.54C81.4039 124.938 83.1285 123.566 84.8996 121.543C86.8727 119.304 88.97 117.161 89.84 116.463C90.2595 116.15 90.5547 115.813 90.5081 115.741C90.3838 115.548 87.4786 118.221 85.3501 120.532C81.9011 124.24 79.9902 125.444 77.784 125.251C76.7897 125.179 76.3236 125.01 75.6556 124.481C73.5738 122.867 72.393 119.882 72.393 116.247C72.393 114.609 72.828 112.178 73.3407 110.854L73.667 110.011L73.2009 110.709C72.3464 111.961 72.0201 113.526 72.0046 116.391C72.0046 118.678 72.0512 119.063 72.4552 120.412C73.0145 122.29 74.3661 124.36 75.609 125.203C76.8519 126.07 78.4521 126.19 79.9746 125.54Z" fill="#FDFDFD"/>
<path d="M103.932 123.927C103.73 123.686 102.953 122.699 102.223 121.736C101.493 120.749 100.576 119.69 100.156 119.377L99.4263 118.799L98.6806 119.377C98.2766 119.69 97.36 120.749 96.6298 121.736C95.8996 122.699 95.1228 123.686 94.9208 123.927C94.548 124.336 94.548 124.336 95.0762 123.951C95.3714 123.734 96.2103 122.868 96.9405 122.049C97.6707 121.206 98.5252 120.34 98.8359 120.099C99.3952 119.69 99.4574 119.69 100.001 120.099C100.327 120.34 101.182 121.206 101.912 122.049C102.642 122.868 103.481 123.734 103.776 123.951C104.305 124.336 104.305 124.336 103.932 123.927Z" fill="#FDFDFD"/>
<path d="M105.376 118.798C104.211 116.15 102.766 114.705 100.653 114.031C99.5191 113.67 99.3326 113.67 98.1985 114.031C96.0856 114.705 94.6407 116.15 93.4755 118.798C93.0405 119.785 93.1026 119.737 94.1746 118.124C96.2565 115.043 98.649 114.007 101.29 115.067C102.735 115.644 103.403 116.246 104.693 118.172C105.765 119.761 105.811 119.81 105.376 118.798Z" fill="#FDFDFD"/>
<path d="M122.621 118.052C122.963 117.763 123.305 117.233 123.46 116.752C123.725 115.861 123.616 115.283 123.305 115.933C122.761 117.089 120.928 117.546 119.98 116.776C118.582 115.668 118.194 112.779 119.11 110.42C119.328 109.842 119.297 109.842 118.877 110.54C118.365 111.359 118.069 112.635 118.069 113.983C118.085 115.668 118.986 117.715 119.98 118.292C120.679 118.702 121.969 118.581 122.621 118.052Z" fill="#FDFDFD"/>
<path d="M78.996 118.22C80.8292 116.944 81.3575 112.779 79.9748 110.54C79.5553 109.842 79.5242 109.842 79.7417 110.42C80.6583 112.779 80.2699 115.668 78.8717 116.776C77.924 117.546 76.0907 117.089 75.547 115.933C75.2362 115.283 75.1275 115.885 75.3916 116.752C75.8732 118.316 77.7531 119.087 78.996 118.22Z" fill="#FDFDFD"/>
<path d="M129.83 117.595C130.949 116.897 130.514 113.911 129.287 113.911C128.152 113.911 127.593 116.006 128.401 117.234C128.789 117.86 129.24 117.956 129.83 117.595ZM128.541 116.512C128.246 115.837 128.37 115.067 128.82 114.682C129.271 114.321 129.799 114.585 130.017 115.332C130.436 116.776 129.116 117.86 128.541 116.512Z" fill="#FDFDFD"/>
<path d="M70.4202 117.354C71.3057 116.271 70.7464 113.911 69.5657 113.911C68.9598 113.911 68.3539 114.898 68.3539 115.886C68.3539 117.475 69.5968 118.365 70.4202 117.354ZM68.8976 116.536C68.6335 115.91 68.7267 115.332 69.1928 114.73C69.5346 114.273 70.1871 114.61 70.4046 115.308C70.8241 116.728 69.4414 117.836 68.8976 116.536Z" fill="#FDFDFD"/>
<path d="M198.64 116.27C198.935 115.909 198.935 115.909 198.562 115.428C198.205 114.946 198.034 114.946 165.113 114.994C129.613 115.067 131.508 114.994 131.912 116.198C132.052 116.608 133.419 116.632 165.19 116.632C194.414 116.632 198.36 116.583 198.64 116.27Z" fill="#FDFDFD"/>
<path d="M66.9401 116.198C67.3441 114.994 69.2395 115.067 33.7395 114.994C0.818497 114.946 0.647598 114.946 0.290268 115.428C-0.0825958 115.909 -0.0825958 115.909 0.212585 116.27C0.492241 116.583 4.43841 116.632 33.6618 116.632C65.4331 116.632 66.8003 116.608 66.9401 116.198Z" fill="#FDFDFD"/>
<path d="M112.259 115.187C113.673 114.85 115.288 113.405 115.475 112.298C115.521 112.033 115.428 111.576 115.273 111.263C115.009 110.781 114.869 110.733 113.533 110.757C112.274 110.781 111.839 110.926 110.224 111.792C108.017 112.948 108.266 113.044 110.892 112.057C112.973 111.263 114.263 111.142 114.745 111.672C115.024 112.009 115.024 112.033 114.589 112.755C113.859 113.935 112.756 114.537 111.078 114.657C110.27 114.706 109.291 114.633 108.903 114.489C107.924 114.152 107.94 114.344 108.934 114.778C110.037 115.259 111.296 115.428 112.259 115.187Z" fill="#FDFDFD"/>
<path d="M88.7062 115.187C89.5607 114.994 90.7725 114.465 90.6948 114.344C90.6637 114.296 90.3219 114.369 89.9491 114.489C89.5607 114.633 88.5819 114.706 87.774 114.657C86.0961 114.537 84.9931 113.935 84.2629 112.755C83.8279 112.033 83.8279 112.009 84.1075 111.672C84.5891 111.142 85.8786 111.263 87.9605 112.057C90.5861 113.044 90.8346 112.948 88.6285 111.792C87.0128 110.926 86.5777 110.781 85.3193 110.757C83.9832 110.733 83.8434 110.781 83.5793 111.263C83.2064 111.985 83.3307 112.635 84.0298 113.526C85.0863 114.874 87.0904 115.596 88.7062 115.187Z" fill="#FDFDFD"/>
</svg>
