<svg width="1194" height="22" viewBox="0 0 1194 22" fill="none" xmlns="http://www.w3.org/2000/svg">
<path d="M628.957 21.6303C631.278 20.7723 633.578 17.8352 634.643 14.3702C635.261 12.3901 635.303 11.9611 635.303 8.76008C635.282 4.83301 634.835 2.68797 633.663 0.97194L633.025 0.0149231L633.472 1.16994C634.174 2.98498 634.771 6.31804 634.771 8.56208C634.771 17.3402 629.702 22.9503 624.08 20.3103C622.036 19.3863 619.928 17.6042 616.67 14.0732C614.029 11.2021 610.111 7.57206 609.962 7.83606C609.919 7.90207 610.707 8.72708 611.729 9.6511C612.751 10.5751 614.349 12.1921 615.286 13.2482C620.333 18.8913 621.93 20.3103 624.506 21.3333C626.146 21.9603 627.743 22.0923 628.957 21.6303Z" fill="#B9D1FF"/>
<path d="M571.055 21.3003C573.014 20.4753 575.378 18.5943 577.806 15.8222C580.51 12.7531 583.385 9.8161 584.577 8.85908C585.152 8.43007 585.557 7.96806 585.493 7.86906C585.323 7.60506 581.341 11.2681 578.423 14.4362C573.696 19.5183 571.076 21.1683 568.052 20.9043C566.689 20.8053 566.051 20.5743 565.135 19.8483C562.281 17.6372 560.663 13.5452 560.663 8.56208C560.663 6.31804 561.259 2.98498 561.962 1.16994L562.409 0.0149231L561.77 0.97194C560.599 2.68797 560.152 4.83301 560.13 8.76008C560.13 11.8951 560.194 12.4231 560.748 14.2712C561.515 16.8452 563.367 19.6833 565.071 20.8383C566.775 22.0263 568.968 22.1913 571.055 21.3003Z" fill="#B9D1FF"/>
<path d="M603.893 19.0893C603.616 18.7593 602.551 17.4063 601.55 16.0863C600.55 14.7333 599.293 13.2812 598.718 12.8522L597.717 12.0602L596.695 12.8522C596.141 13.2812 594.885 14.7333 593.884 16.0863C592.883 17.4063 591.819 18.7593 591.542 19.0893C591.031 19.6503 591.031 19.6503 591.755 19.1223C592.159 18.8253 593.309 17.6373 594.31 16.5153C595.311 15.3603 596.482 14.1722 596.908 13.8422C597.675 13.2812 597.76 13.2812 598.505 13.8422C598.952 14.1722 600.124 15.3603 601.125 16.5153C602.125 17.6373 603.275 18.8253 603.68 19.1223C604.404 19.6503 604.404 19.6503 603.893 19.0893Z" fill="#B9D1FF"/>
<path d="M605.873 12.0596C604.276 8.42954 602.295 6.44951 599.399 5.52549C597.845 5.03048 597.589 5.03048 596.034 5.52549C593.138 6.44951 591.158 8.42954 589.561 12.0596C588.964 13.4126 589.05 13.3466 590.519 11.1356C593.372 6.91152 596.652 5.49249 600.272 6.94452C602.253 7.73653 603.168 8.56155 604.936 11.2016C606.405 13.3796 606.469 13.4456 605.873 12.0596Z" fill="#B9D1FF"/>
<path d="M629.511 11.0361C629.979 10.6401 630.448 9.91404 630.661 9.25403C631.023 8.03301 630.874 7.241 630.448 8.13201C629.703 9.71604 627.19 10.3431 625.891 9.28703C623.974 7.76901 623.442 3.80894 624.698 0.574877C624.996 -0.217137 624.954 -0.217137 624.379 0.73988C623.676 1.8619 623.271 3.61093 623.271 5.45896C623.293 7.76901 624.528 10.5741 625.891 11.3661C626.849 11.9271 628.616 11.7621 629.511 11.0361Z" fill="#B9D1FF"/>
<path d="M569.714 11.2671C572.226 9.51804 572.95 3.80894 571.055 0.73988C570.48 -0.217137 570.438 -0.217137 570.736 0.574877C571.992 3.80894 571.46 7.76901 569.543 9.28703C568.244 10.3431 565.731 9.71604 564.986 8.13201C564.56 7.241 564.411 8.06601 564.773 9.25403C565.433 11.3991 568.01 12.4551 569.714 11.2671Z" fill="#B9D1FF"/>
<path d="M639.392 10.4102C640.925 9.45319 640.329 5.36111 638.647 5.36111C637.092 5.36111 636.326 8.23217 637.433 9.9152C637.965 10.7732 638.583 10.9052 639.392 10.4102ZM637.625 8.92518C637.22 8.00116 637.39 6.94514 638.008 6.41713C638.625 5.92212 639.349 6.28513 639.648 7.30815C640.223 9.28818 638.412 10.7732 637.625 8.92518Z" fill="#B9D1FF"/>
<path d="M557.959 10.0802C559.173 8.59517 558.406 5.36111 556.787 5.36111C555.957 5.36111 555.126 6.71414 555.126 8.06716C555.126 10.2452 556.83 11.4662 557.959 10.0802ZM555.872 8.95818C555.51 8.10016 555.637 7.30815 556.276 6.48313C556.745 5.85612 557.639 6.31813 557.937 7.27515C558.512 9.22218 556.617 10.7402 555.872 8.95818Z" fill="#B9D1FF"/>
<path d="M1192.25 7.4107C1194.68 7.07306 1194.68 7.07306 1191.61 6.62287C1188.67 6.17268 1187.27 6.17268 916.406 6.2177C624.327 6.28523 639.921 6.2177 643.245 7.34317C644.395 7.72583 655.644 7.74834 917.045 7.74834C1157.48 7.74834 1189.95 7.70332 1192.25 7.4107Z" fill="#B9D1FF"/>
<path d="M551.753 7.34314C555.082 6.21767 570.705 6.2852 278.097 6.21767C6.74597 6.17265 5.33734 6.17265 2.39203 6.62284C-0.681335 7.07303 -0.681274 7.07303 1.75177 7.41067C4.05676 7.70329 36.5831 7.74831 277.457 7.74831C539.331 7.74831 550.6 7.7258 551.753 7.34314Z" fill="#B9D1FF"/>
<path d="M615.307 7.10973C617.245 6.64772 619.459 4.66769 619.715 3.14966C619.779 2.78665 619.651 2.15964 619.438 1.73063C619.076 1.07062 618.884 1.00462 617.053 1.03762C615.328 1.07062 614.732 1.26863 612.517 2.45665C609.493 4.04068 609.834 4.17268 613.433 2.81965C616.286 1.73063 618.054 1.56563 618.714 2.29164C619.097 2.75365 619.097 2.78665 618.501 3.77667C617.5 5.3937 615.988 6.21871 613.688 6.38372C612.581 6.44972 611.239 6.35072 610.707 6.15271C609.365 5.69071 609.387 5.95471 610.75 6.54872C612.261 7.20873 613.986 7.43974 615.307 7.10973Z" fill="#B9D1FF"/>
<path d="M583.023 7.10973C584.194 6.84573 585.856 6.11971 585.749 5.95471C585.706 5.88871 585.238 5.98771 584.727 6.15271C584.194 6.35072 582.853 6.44972 581.746 6.38372C579.446 6.21872 577.934 5.3937 576.933 3.77667C576.337 2.78665 576.337 2.75365 576.72 2.29165C577.38 1.56563 579.147 1.73063 582.001 2.81965C585.6 4.17268 585.941 4.04068 582.917 2.45665C580.702 1.26863 580.106 1.07062 578.381 1.03762C576.549 1.00462 576.358 1.07062 575.996 1.73063C575.485 2.72065 575.655 3.61167 576.613 4.83269C578.061 6.68072 580.809 7.67074 583.023 7.10973Z" fill="#B9D1FF"/>
</svg>
