<svg width="16" height="17" viewBox="0 0 16 17" fill="none" xmlns="http://www.w3.org/2000/svg">
<path d="M8.66661 1.16675C8.66661 0.989944 8.73684 0.820375 8.86187 0.69535C8.98689 0.570326 9.15646 0.500088 9.33327 0.500088C11.1008 0.502029 12.7953 1.20503 14.0452 2.45485C15.295 3.70468 15.998 5.39924 15.9999 7.16676C15.9999 7.34357 15.9297 7.51314 15.8047 7.63816C15.6796 7.76318 15.5101 7.83342 15.3333 7.83342C15.1565 7.83342 14.9869 7.76318 14.8619 7.63816C14.7368 7.51314 14.6666 7.34357 14.6666 7.16676C14.665 5.75276 14.1026 4.39712 13.1027 3.39727C12.1029 2.39742 10.7473 1.83501 9.33327 1.83342C9.15646 1.83342 8.98689 1.76318 8.86187 1.63816C8.73684 1.51314 8.66661 1.34357 8.66661 1.16675V1.16675ZM9.33327 4.50009C10.0405 4.50009 10.7188 4.78104 11.2189 5.28114C11.719 5.78123 11.9999 6.45951 11.9999 7.16676C11.9999 7.34357 12.0702 7.51314 12.1952 7.63816C12.3202 7.76318 12.4898 7.83342 12.6666 7.83342C12.8434 7.83342 13.013 7.76318 13.138 7.63816C13.263 7.51314 13.3333 7.34357 13.3333 7.16676C13.3322 6.10621 12.9104 5.08941 12.1605 4.3395C11.4106 3.58958 10.3938 3.16781 9.33327 3.16676C9.15646 3.16676 8.98689 3.23699 8.86187 3.36202C8.73684 3.48704 8.66661 3.65661 8.66661 3.83342C8.66661 4.01023 8.73684 4.1798 8.86187 4.30483C8.98689 4.42985 9.15646 4.50009 9.33327 4.50009V4.50009ZM15.3953 11.6594C15.7816 12.0468 15.9986 12.5716 15.9986 13.1188C15.9986 13.6659 15.7816 14.1907 15.3953 14.5781L14.7886 15.2774C9.32861 20.5048 -3.95805 7.22142 1.18861 1.74409L1.95528 1.07742C2.34313 0.701873 2.86323 0.494121 3.40308 0.499111C3.94293 0.504102 4.45911 0.721434 4.83994 1.10409C4.86061 1.12475 6.09594 2.72942 6.09594 2.72942C6.46249 3.11451 6.66654 3.62604 6.66568 4.15769C6.66481 4.68934 6.45909 5.2002 6.09128 5.58409L5.31928 6.55476C5.74651 7.59283 6.37465 8.53625 7.16761 9.33082C7.96058 10.1254 8.90273 10.7554 9.93994 11.1848L10.9166 10.4081C11.3005 10.0406 11.8113 9.83509 12.3428 9.83434C12.8743 9.8336 13.3856 10.0376 13.7706 10.4041C13.7706 10.4041 15.3746 11.6388 15.3953 11.6594ZM14.4779 12.6288C14.4779 12.6288 12.8826 11.4014 12.8619 11.3808C12.7246 11.2446 12.539 11.1682 12.3456 11.1682C12.1522 11.1682 11.9666 11.2446 11.8293 11.3808C11.8113 11.3994 10.4666 12.4708 10.4666 12.4708C10.376 12.5429 10.2681 12.5902 10.1537 12.6079C10.0393 12.6257 9.92216 12.6133 9.81394 12.5721C8.47025 12.0718 7.24977 11.2886 6.23517 10.2755C5.22057 9.26237 4.43555 8.04304 3.93328 6.70009C3.88874 6.59039 3.87422 6.47081 3.89121 6.35365C3.9082 6.23648 3.95609 6.12595 4.02994 6.03342C4.02994 6.03342 5.10128 4.68809 5.11928 4.67076C5.25546 4.53341 5.33186 4.34783 5.33186 4.15442C5.33186 3.96101 5.25546 3.77543 5.11928 3.63809C5.09861 3.61809 3.87128 2.02142 3.87128 2.02142C3.73188 1.89643 3.54995 1.82949 3.36278 1.83432C3.17561 1.83915 2.99737 1.9154 2.86461 2.04742L2.09795 2.71409C-1.66338 7.23676 9.8506 18.1121 13.8139 14.3668L14.4213 13.6668C14.5636 13.5349 14.6491 13.3529 14.6596 13.1592C14.6702 12.9655 14.6051 12.7753 14.4779 12.6288V12.6288Z" fill="#192229"/>
</svg>
