<svg width="55" height="53" viewBox="0 0 55 53" fill="none" xmlns="http://www.w3.org/2000/svg">
<path d="M54.1667 11.9437C54.1362 10.8113 54.0458 9.68101 53.8958 8.5575C53.6936 7.57345 53.3566 6.62001 52.8938 5.7225C52.4097 4.7489 51.7596 3.86144 50.9708 3.0975C50.1748 2.34204 49.2608 1.71305 48.2625 1.23375C47.3353 0.793916 46.3516 0.476105 45.3375 0.28875C44.1893 0.122061 43.0315 0.0256202 41.8708 0H12.3229C11.1545 0.0294955 9.98835 0.117111 8.82917 0.2625C7.81388 0.458504 6.83017 0.785146 5.90417 1.23375C4.89966 1.70293 3.98403 2.33303 3.19583 3.0975C2.41639 3.86901 1.76743 4.75491 1.27292 5.7225C0.81912 6.6212 0.49122 7.57464 0.297916 8.5575C0.125936 9.67033 0.0264336 10.7925 0 11.9175C0 12.4162 0 13.125 0 13.335V39.165C0 39.4537 0 40.0837 0 40.5562C0.0304319 41.6887 0.120828 42.819 0.270833 43.9425C0.47306 44.9265 0.810072 45.88 1.27292 46.7775C1.757 47.7511 2.40709 48.6386 3.19583 49.4025C3.99184 50.158 4.90586 50.7869 5.90417 51.2662C6.8314 51.7061 7.8151 52.0239 8.82917 52.2112C9.97732 52.3779 11.1352 52.4744 12.2958 52.5H41.8438C43.0122 52.4705 44.1783 52.3829 45.3375 52.2375C46.3528 52.0415 47.3365 51.7149 48.2625 51.2662C49.267 50.7971 50.1826 50.167 50.9708 49.4025C51.7503 48.631 52.3992 47.7451 52.8938 46.7775C53.3475 45.8788 53.6754 44.9254 53.8687 43.9425C54.0407 42.8297 54.1402 41.7074 54.1667 40.5825C54.1667 40.0837 54.1667 39.4537 54.1667 39.165V13.335C54.1667 13.125 54.1667 12.4162 54.1667 11.9437ZM27.7062 44.625C24.4537 44.6094 21.2581 43.7967 18.4167 42.2625L8.125 44.8875L10.8333 35.1225C9.08677 32.2782 8.15204 29.0348 8.125 25.725C8.13578 22.0052 9.28201 18.3716 11.4193 15.282C13.5566 12.1923 16.5894 9.78477 20.1357 8.3625C23.682 6.94024 27.5833 6.56688 31.3481 7.28946C35.1129 8.01204 38.573 9.79824 41.2924 12.4231C44.0119 15.0479 45.8692 18.394 46.6303 22.04C47.3915 25.6859 47.0225 29.4687 45.5698 32.9117C44.1172 36.3548 41.6458 39.3043 38.467 41.3887C35.2882 43.473 31.5441 44.5991 27.7062 44.625ZM27.7062 10.1587C24.8349 10.1906 22.0235 10.9593 19.5584 12.3867C17.0932 13.814 15.0623 15.849 13.6725 18.2845C12.2826 20.7199 11.5834 23.4689 11.6461 26.2514C11.7087 29.0339 12.531 31.7506 14.0292 34.125L14.4083 34.7287L12.7833 40.4775L18.9583 38.85L19.5542 39.1912C22.0176 40.5976 24.8202 41.3492 27.6792 41.37C31.9889 41.37 36.1222 39.7106 39.1697 36.7569C42.2171 33.8032 43.9292 29.7972 43.9292 25.62C43.9292 21.4428 42.2171 17.4368 39.1697 14.4831C36.1222 11.5294 31.9889 9.87 27.6792 9.87L27.7062 10.1587ZM37.1854 32.5237C36.8307 33.0972 36.3557 33.5921 35.7912 33.9765C35.2267 34.3608 34.5853 34.6261 33.9083 34.755C32.8969 34.9342 31.8556 34.8711 30.875 34.5712C29.9524 34.2917 29.048 33.9586 28.1667 33.5737C24.8185 31.9454 21.9631 29.5034 19.8792 26.4862C18.7468 25.0884 18.0597 23.4007 17.9021 21.63C17.886 20.8944 18.0295 20.1638 18.3235 19.4855C18.6174 18.8072 19.0552 18.1963 19.6083 17.6925C19.7713 17.5134 19.9712 17.3695 20.1951 17.27C20.419 17.1706 20.662 17.1177 20.9083 17.115H21.6667C21.9646 17.115 22.3708 17.115 22.75 17.9287C23.1292 18.7425 24.1312 21.1837 24.2667 21.42C24.3332 21.5459 24.3679 21.6854 24.3679 21.8269C24.3679 21.9684 24.3332 22.1078 24.2667 22.2337C24.1469 22.519 23.9825 22.7846 23.7792 23.0212C23.5354 23.31 23.2646 23.6512 23.0479 23.8612C22.8312 24.0712 22.5604 24.3337 22.8313 24.8062C23.5682 26.0116 24.4803 27.1079 25.5396 28.0612C26.6931 29.0492 28.012 29.8393 29.4396 30.3975C29.9271 30.6337 30.225 30.6075 30.4958 30.3975C30.7667 30.1875 31.7146 29.0325 32.0396 28.56C32.3646 28.0875 32.6896 28.1662 33.1229 28.3237C33.5562 28.4812 35.9667 29.61 36.4542 29.8462C36.9417 30.0825 37.2396 30.1875 37.375 30.3975C37.4925 31.0845 37.4272 31.7892 37.1854 32.445V32.5237Z" fill="#C4C8D0"/>
</svg>
